<?xml version="1.0" encoding="utf-8"?>
<!-- Generator: Adobe Illustrator 23.0.1, SVG Export Plug-In . SVG Version: 6.00 Build 0)  -->
<svg version="1.1" id="Capa_1" xmlns="http://www.w3.org/2000/svg" xmlns:xlink="http://www.w3.org/1999/xlink" x="0px" y="0px"
	 viewBox="0 0 752.1 299.2" style="enable-background:new 0 0 752.1 299.2;" xml:space="preserve">
<style type="text/css">
	.st0{fill:#2E2D2C;}
	.st1{font-family:'MuseoSans-500';}
	.st2{font-size:32.0616px;}
	.st3{letter-spacing:1;}
	.st4{opacity:0.4;}
	.st5{opacity:0;}
	.st6{opacity:1.951220e-02;}
	.st7{opacity:3.902439e-02;}
	.st8{opacity:5.853659e-02;}
	.st9{opacity:7.804878e-02;}
	.st10{opacity:9.756097e-02;}
	.st11{opacity:0.1171;}
	.st12{opacity:0.1366;}
	.st13{opacity:0.1561;}
	.st14{opacity:0.1756;}
	.st15{opacity:0.1951;}
	.st16{opacity:0.2146;}
	.st17{opacity:0.2341;}
	.st18{opacity:0.2537;}
	.st19{opacity:0.2732;}
	.st20{opacity:0.2927;}
	.st21{opacity:0.3122;}
	.st22{opacity:0.3317;}
	.st23{opacity:0.3512;}
	.st24{opacity:0.3707;}
	.st25{opacity:0.3902;}
	.st26{opacity:0.4098;}
	.st27{opacity:0.4293;}
	.st28{opacity:0.4488;}
	.st29{opacity:0.4683;}
	.st30{opacity:0.4878;}
	.st31{opacity:0.5073;}
	.st32{opacity:0.5268;}
	.st33{opacity:0.5463;}
	.st34{opacity:0.5659;}
	.st35{opacity:0.5854;}
	.st36{opacity:0.6049;}
	.st37{opacity:0.6244;}
	.st38{opacity:0.6439;}
	.st39{opacity:0.6634;}
	.st40{opacity:0.6829;}
	.st41{opacity:0.7024;}
	.st42{opacity:0.722;}
	.st43{opacity:0.7415;}
	.st44{opacity:0.761;}
	.st45{opacity:0.7805;}
	.st46{opacity:0.8;}
	.st47{clip-path:url(#SVGID_2_);}
	.st48{fill:url(#SVGID_3_);}
	.st49{fill:url(#SVGID_4_);}
	.st50{fill:url(#SVGID_5_);}
	.st51{fill:url(#SVGID_6_);}
	.st52{fill:url(#SVGID_7_);}
	.st53{fill:url(#SVGID_8_);}
	.st54{fill:url(#SVGID_9_);}
	.st55{fill:url(#SVGID_10_);}
	.st56{fill:url(#SVGID_11_);}
	.st57{fill:url(#SVGID_12_);}
	.st58{fill:url(#SVGID_13_);}
	.st59{fill:url(#SVGID_14_);}
	.st60{fill:url(#SVGID_15_);}
	.st61{fill:url(#SVGID_16_);}
	.st62{fill:url(#SVGID_17_);}
	.st63{fill:#1A9EB2;}
	.st64{fill:#2E589C;}
	.st65{opacity:0.4;fill:url(#SVGID_18_);}
	.st66{opacity:0.5;fill:url(#SVGID_19_);}
	.st67{opacity:0.6;}
	.st68{fill:url(#SVGID_20_);}
	.st69{clip-path:url(#SVGID_22_);}
	.st70{fill:url(#SVGID_25_);}
	.st71{fill:url(#SVGID_26_);}
	.st72{opacity:0.6;fill:url(#SVGID_27_);}
	.st73{fill:#2BB7CE;}
	.st74{opacity:0.4;fill:url(#SVGID_28_);}
	.st75{fill:url(#SVGID_29_);}
	.st76{fill:#FFFFFF;}
	.st77{fill:#CCCACA;}
	.st78{fill:url(#SVGID_30_);}
	.st79{fill:url(#SVGID_31_);}
	.st80{fill:url(#SVGID_32_);}
	.st81{fill:url(#SVGID_33_);}
	.st82{fill:url(#SVGID_34_);}
	.st83{fill:url(#SVGID_35_);}
	.st84{fill:url(#SVGID_36_);}
	.st85{fill:url(#SVGID_37_);}
	.st86{fill:url(#SVGID_38_);}
	.st87{fill:url(#SVGID_39_);}
	.st88{fill:url(#SVGID_40_);}
	.st89{fill:url(#SVGID_41_);}
	.st90{fill:url(#SVGID_42_);}
	.st91{fill:url(#SVGID_43_);}
	.st92{fill:url(#SVGID_44_);}
	.st93{fill:url(#SVGID_45_);}
	.st94{opacity:0.6;fill:url(#SVGID_46_);}
	.st95{opacity:0.6;fill:url(#SVGID_47_);}
	.st96{opacity:0.4;fill:url(#SVGID_48_);}
	.st97{opacity:0.4;clip-path:url(#SVGID_2_);}
	.st98{filter:url(#Adobe_OpacityMaskFilter);}
</style>
<g>
	<g>
		<polygon class="st0" points="226,177.7 271.2,177.7 271.2,168.8 236.1,168.8 236.1,159.4 255.4,159.4 255.4,150.5 236.1,150.5 
			236.1,133 271.2,133 271.2,124.1 226,124.1 		"/>
		<path class="st0" d="M689.4,151.2c-4.7-10.6-9.6-21.5-9.6-26.2v-0.9h-10.1v0.9c0,4.7-4.9,15.6-9.6,26.2
			c-4.8,10.8-9.3,20.9-9.3,25.6v0.9H661v-0.9c0-1.6,0.6-4,1.8-7.5h24c1.2,3.5,1.8,5.9,1.8,7.5v0.9h10.1v-0.9
			C698.7,172.2,694.2,162,689.4,151.2z M683.5,161.1h-17.5c1.3-3,2.7-6.3,4.2-9.4c1.6-3.5,3.2-7.1,4.6-10.5c1.4,3.4,3,7,4.6,10.4
			C680.8,154.8,682.3,158,683.5,161.1z"/>
		<path class="st0" d="M588.7,124.1l-28.3,0v53.6h10.1v-18.3h17.3l0.9,0v0c9.2-0.6,16.5-8.3,16.5-17.6S597.8,124.8,588.7,124.1z
			 M596.1,141.8c0,4.5-3.7,8.7-7.9,8.7h-17.8v-17.4h17.8C592.4,133.1,596.1,137.3,596.1,141.8z"/>
		<path class="st0" d="M454.9,156.7c5.1-3.2,8.3-8.9,8.3-15c0-9.3-7.3-17-16.5-17.6l-28.2,0v53.6h10.1v-18.3h17.3
			c0.4,2.6,2.2,5.7,3.9,8.6c1.9,3.1,3.8,6.4,3.7,8.7l0,1h10.1v-0.9c0-2.9-2.2-6.9-4.6-11C457.2,162.4,455.2,159,454.9,156.7z
			 M428.6,133.1h17.7c4.1,0,7.9,4.1,7.9,8.7c0,4.5-3.7,8.7-7.9,8.7h-17.7V133.1z"/>
		<path class="st0" d="M324.9,157.8c-10-10-25-25.3-25-32.8v-0.9h-10.1v53.6H300v-31.2c22.3,22.5,24.9,28.7,25,30.3l0,0.9H335v-53.6
			h-10.1V157.8z"/>
		<polygon class="st0" points="353.8,133 371.7,133 371.7,177.7 381.8,177.7 381.8,133 399.8,133 399.8,124.1 353.8,124.1 		"/>
		<rect x="623.9" y="131.3" class="st0" width="10.1" height="46.4"/>
		<path class="st0" d="M628.5,114c-2.4,4.2-4.6,8.1-4.6,11v0.9H634l0-1c-0.1-2.3,1.8-5.6,3.7-8.7c0.3-0.6,0.7-1.2,1-1.7l0.8-1.4H629
			L628.5,114z"/>
		<path class="st0" d="M512,121.6c-16.2,0-29.3,13.2-29.3,29.3c0,16.2,13.2,29.3,29.3,29.3c16.2,0,29.3-13.2,29.3-29.3
			C541.3,134.7,528.2,121.6,512,121.6z M531.4,150.9c0,10.7-8.7,19.4-19.4,19.4c-10.7,0-19.4-8.7-19.4-19.4
			c0-10.7,8.7-19.4,19.4-19.4C522.7,131.5,531.4,140.2,531.4,150.9z"/>
	</g>
	<g>
		<text transform="matrix(1 0 0 1 226.0446 216.6996)" class="st0 st1 st2 st3">marketing y comunicación</text>
	</g>
	<g>
		<g>
			<g class="st4">
				<ellipse class="st5" cx="133.3" cy="241.1" rx="70" ry="5.6"/>
				<ellipse class="st6" cx="133.3" cy="241.1" rx="69.3" ry="5.6"/>
				<ellipse class="st7" cx="133.3" cy="241.1" rx="68.6" ry="5.5"/>
				<ellipse class="st8" cx="133.3" cy="241.1" rx="68" ry="5.5"/>
				<ellipse class="st9" cx="133.3" cy="241.1" rx="67.3" ry="5.4"/>
				<ellipse class="st10" cx="133.3" cy="241.1" rx="66.6" ry="5.4"/>
				<ellipse class="st11" cx="133.3" cy="241" rx="65.9" ry="5.3"/>
				<ellipse class="st12" cx="133.3" cy="241" rx="65.3" ry="5.3"/>
				<ellipse class="st13" cx="133.3" cy="241" rx="64.6" ry="5.2"/>
				<ellipse class="st14" cx="133.3" cy="241" rx="63.9" ry="5.1"/>
				<ellipse class="st15" cx="133.3" cy="241" rx="63.2" ry="5.1"/>
				<ellipse class="st16" cx="133.3" cy="241" rx="62.6" ry="5"/>
				<ellipse class="st17" cx="133.3" cy="241" rx="61.9" ry="5"/>
				<ellipse class="st18" cx="133.3" cy="241" rx="61.2" ry="4.9"/>
				<ellipse class="st19" cx="133.3" cy="241" rx="60.5" ry="4.9"/>
				<ellipse class="st20" cx="133.3" cy="241" rx="59.9" ry="4.8"/>
				<ellipse class="st21" cx="133.3" cy="241" rx="59.2" ry="4.8"/>
				<ellipse class="st22" cx="133.3" cy="241" rx="58.5" ry="4.7"/>
				<ellipse class="st23" cx="133.3" cy="241" rx="57.8" ry="4.7"/>
				<ellipse class="st24" cx="133.3" cy="240.9" rx="57.2" ry="4.6"/>
				<ellipse class="st25" cx="133.3" cy="240.9" rx="56.5" ry="4.5"/>
				<ellipse class="st26" cx="133.3" cy="240.9" rx="55.8" ry="4.5"/>
				<ellipse class="st27" cx="133.3" cy="240.9" rx="55.1" ry="4.4"/>
				<ellipse class="st28" cx="133.3" cy="240.9" rx="54.4" ry="4.4"/>
				<ellipse class="st29" cx="133.3" cy="240.9" rx="53.8" ry="4.3"/>
				<ellipse class="st30" cx="133.3" cy="240.9" rx="53.1" ry="4.3"/>
				<ellipse class="st31" cx="133.3" cy="240.9" rx="52.4" ry="4.2"/>
				<ellipse class="st32" cx="133.3" cy="240.9" rx="51.7" ry="4.2"/>
				<ellipse class="st33" cx="133.3" cy="240.9" rx="51.1" ry="4.1"/>
				<ellipse class="st34" cx="133.3" cy="240.9" rx="50.4" ry="4.1"/>
				<ellipse class="st35" cx="133.3" cy="240.9" rx="49.7" ry="4"/>
				<ellipse class="st36" cx="133.3" cy="240.8" rx="49" ry="3.9"/>
				<ellipse class="st37" cx="133.3" cy="240.8" rx="48.4" ry="3.9"/>
				<ellipse class="st38" cx="133.3" cy="240.8" rx="47.7" ry="3.8"/>
				<ellipse class="st39" cx="133.3" cy="240.8" rx="47" ry="3.8"/>
				<ellipse class="st40" cx="133.3" cy="240.8" rx="46.3" ry="3.7"/>
				<ellipse class="st41" cx="133.3" cy="240.8" rx="45.7" ry="3.7"/>
				<ellipse class="st42" cx="133.3" cy="240.8" rx="45" ry="3.6"/>
				<ellipse class="st43" cx="133.3" cy="240.8" rx="44.3" ry="3.6"/>
				<ellipse class="st44" cx="133.3" cy="240.8" rx="43.6" ry="3.5"/>
				<ellipse class="st45" cx="133.3" cy="240.8" rx="43" ry="3.5"/>
				<ellipse class="st46" cx="133.3" cy="240.8" rx="42.3" ry="3.4"/>
			</g>
			<path class="st0" d="M133.3,52.5c-33.1,0-59.9,42.9-59.9,95.8c0,52.9,26.8,95.8,59.9,95.8c33.1,0,59.9-42.9,59.9-95.8
				C193.2,95.4,166.4,52.5,133.3,52.5z M121.8,222.2c-20.8,0-37.7-33.1-37.7-73.9c0-40.8,16.9-73.9,37.7-73.9s37.7,33.1,37.7,73.9
				C159.5,189.1,142.6,222.2,121.8,222.2z"/>
		</g>
		<g>
			<defs>
				<path id="SVGID_1_" d="M121.8,222.2c-20.8,0-68.4,2.2-68.4-38.7c0-40.8,47.6-109.2,68.4-109.2s37.7,33.1,37.7,73.9
					C159.5,189.1,142.6,222.2,121.8,222.2z"/>
			</defs>
			<clipPath id="SVGID_2_">
				<use xlink:href="#SVGID_1_"  style="overflow:visible;"/>
			</clipPath>
			<g class="st47">
				<g>
					<radialGradient id="SVGID_3_" cx="155.1935" cy="111.0435" r="16.3568" gradientUnits="userSpaceOnUse">
						<stop  offset="0.5025" style="stop-color:#B31B51"/>
						<stop  offset="0.8081" style="stop-color:#E666A1"/>
					</radialGradient>
					<path class="st48" d="M145,116.6c-0.5-1.2-0.7-2.4-0.6-3.6c0.1-1.2,0.3-2.4,0.6-3.6c0.7-2.3,2-4.4,3.7-6.2c1.7-1.8,4-3.3,6.6-4
						c1.3-0.4,2.6-0.6,3.9-0.5c1.3,0,2.6,0.2,3.8,0.5c1.9,0.5,3,2.6,2.5,4.5c-0.5,1.7-2.2,2.8-3.9,2.6l-0.2,0
						c-0.8-0.1-1.5-0.2-2.3-0.2c-0.7,0-1.4,0.1-2.2,0.2c-1.4,0.3-2.8,0.8-4.2,1.7c-1.3,0.9-2.6,2.1-3.7,3.5c-0.5,0.7-1,1.5-1.4,2.3
						c-0.4,0.8-0.7,1.6-0.8,2.5l0,0.2c-0.1,0.6-0.6,1-1.2,0.9C145.5,117.1,145.2,116.9,145,116.6z"/>
					<radialGradient id="SVGID_4_" cx="155.1108" cy="107.9238" r="10.0204" gradientUnits="userSpaceOnUse">
						<stop  offset="0" style="stop-color:#481E50;stop-opacity:0.7"/>
						<stop  offset="0.4387" style="stop-color:#481E50"/>
						<stop  offset="1" style="stop-color:#481E50;stop-opacity:0.4"/>
					</radialGradient>
					<path class="st49" d="M159.2,99.6L159.2,99.6l0.1,0c1.3,0,2.5,0.2,3.6,0.5c1.4,0.4,2.2,1.8,1.8,3.2c-0.3,1.1-1.4,1.9-2.5,1.9
						c-0.1,0-0.2,0-0.3,0l-0.2,0l-0.2,0c-0.7-0.1-1.4-0.2-2.2-0.2l-0.2,0c-0.7,0-1.4,0.1-2.1,0.2c-1.6,0.3-3.1,0.9-4.6,1.9
						c-1.5,1-2.8,2.3-3.9,3.7c-0.6,0.8-1.1,1.6-1.5,2.4c-0.4,0.9-0.7,1.8-0.9,2.8l0,0.2c0,0,0,0.1-0.1,0.1c0,0,0,0,0,0
						c0,0,0,0-0.1,0c-0.4-0.9-0.6-1.9-0.5-3.2c0-1.1,0.2-2.2,0.6-3.3c0.7-2.2,1.9-4.2,3.5-5.8c1.7-1.7,3.9-3.1,6.1-3.7
						C156.9,99.8,158.1,99.6,159.2,99.6 M159.2,98.6c-1.3,0-2.6,0.2-3.8,0.5c-2.6,0.7-4.9,2.2-6.6,4c-1.7,1.8-3,4-3.7,6.2
						c-0.4,1.1-0.6,2.3-0.6,3.6c0,1.2,0.1,2.5,0.6,3.6c0.1,0.3,0.4,0.6,0.8,0.6c0.1,0,0.1,0,0.2,0c0.5,0,1-0.4,1.1-0.9l0-0.2
						c0.1-0.9,0.4-1.7,0.8-2.5c0.4-0.8,0.9-1.5,1.4-2.3c1-1.4,2.3-2.6,3.7-3.5c1.3-0.9,2.8-1.5,4.2-1.7c0.6-0.1,1.3-0.2,1.9-0.2
						c0.1,0,0.1,0,0.2,0c0.7,0,1.5,0.1,2.3,0.2l0.2,0c0.1,0,0.3,0,0.4,0c1.6,0,3-1,3.5-2.6c0.5-1.9-0.6-3.9-2.5-4.5
						c-1.2-0.3-2.5-0.5-3.8-0.5C159.3,98.6,159.2,98.6,159.2,98.6L159.2,98.6z"/>
				</g>
				<g>
					<radialGradient id="SVGID_5_" cx="144.1991" cy="117.9353" r="22.344" gradientUnits="userSpaceOnUse">
						<stop  offset="0.5025" style="stop-color:#B31B51"/>
						<stop  offset="0.8081" style="stop-color:#E666A1"/>
					</radialGradient>
					<path class="st50" d="M143.2,116.3c-0.9-0.9-1.9-1.6-3-2.1c-1-0.5-2.1-0.9-3.2-1c-1.1-0.1-2.1,0-3,0.3c-1,0.3-1.8,0.9-2.7,1.4
						c-1.5,1-3.5,0.6-4.5-0.8c-1-1.5-0.6-3.5,0.8-4.5c0.3-0.2,0.5-0.3,0.8-0.4l0,0c1.5-0.5,3.2-0.9,4.8-0.9c1.7,0,3.4,0.3,4.8,0.9
						c1.5,0.6,2.8,1.5,3.9,2.6c1.1,1,1.9,2.2,2.7,3.4c0.3,0.5,0.1,1-0.3,1.3C144,116.7,143.5,116.6,143.2,116.3L143.2,116.3z"/>
					<radialGradient id="SVGID_6_" cx="135.5353" cy="112.4625" r="7.1987" gradientUnits="userSpaceOnUse">
						<stop  offset="0" style="stop-color:#481E50;stop-opacity:0.7"/>
						<stop  offset="0.4387" style="stop-color:#481E50"/>
						<stop  offset="1" style="stop-color:#481E50;stop-opacity:0.4"/>
					</radialGradient>
					<path class="st51" d="M133.5,109.3c1.5,0,3,0.3,4.3,0.8c1.3,0.5,2.5,1.3,3.5,2.4c0.8,0.8,1.6,1.7,2.3,2.8
						c-0.9-0.8-1.9-1.5-2.9-2c-1.2-0.6-2.4-1-3.6-1.1c-0.3,0-0.5,0-0.8,0c-0.9,0-1.8,0.1-2.6,0.4c-1.2,0.4-2.2,1-3,1.6
						c-0.4,0.3-0.8,0.4-1.3,0.4c-0.7,0-1.4-0.4-1.8-1c-0.7-1-0.4-2.4,0.6-3.1c0.2-0.1,0.4-0.2,0.5-0.3l0,0l0,0
						c1.7-0.6,3.2-0.8,4.5-0.9L133.5,109.3 M133.5,108.3c-0.1,0-0.1,0-0.2,0c-1.7,0-3.3,0.4-4.8,0.9l0,0c-0.3,0.1-0.6,0.2-0.8,0.4
						c-1.5,1-1.9,3-0.8,4.5c0.6,0.9,1.6,1.4,2.7,1.4c0.6,0,1.3-0.2,1.8-0.6c0.9-0.6,1.7-1.1,2.7-1.4c0.7-0.2,1.5-0.4,2.3-0.4
						c0.2,0,0.5,0,0.7,0c1.1,0.1,2.1,0.4,3.2,1c1.1,0.5,2.1,1.3,3,2.1l0,0c0.2,0.2,0.4,0.3,0.7,0.3c0.2,0,0.3,0,0.5-0.1
						c0.5-0.3,0.6-0.9,0.3-1.3c-0.7-1.2-1.6-2.4-2.7-3.4c-1.1-1-2.4-1.9-3.9-2.6C136.7,108.6,135.1,108.3,133.5,108.3L133.5,108.3z"
						/>
				</g>
				<g>
					<radialGradient id="SVGID_7_" cx="145.1431" cy="115.3393" r="22.8511" gradientUnits="userSpaceOnUse">
						<stop  offset="0.5025" style="stop-color:#B31B51"/>
						<stop  offset="0.8081" style="stop-color:#E666A1"/>
					</radialGradient>
					<path class="st52" d="M144.6,115.1c-1.1-1.2-2-2.3-3.1-3.4c-1-1-2.1-2-3.2-2.8c-1.1-0.8-2.2-1.4-3.3-1.8
						c-1.1-0.4-2.3-0.7-3.5-0.9l-0.1,0c-1.6-0.2-2.7-1.7-2.4-3.3c0.2-1.4,1.5-2.5,2.9-2.5c1.9,0,3.9,0.5,5.6,1.4
						c1.7,0.9,3.2,2.1,4.4,3.4c1.2,1.3,2.1,2.8,2.8,4.4c0.7,1.5,1.2,3.1,1.5,4.8c0.1,0.5-0.2,0.9-0.7,1
						C145.1,115.5,144.8,115.4,144.6,115.1L144.6,115.1z"/>
					<radialGradient id="SVGID_8_" cx="137.5146" cy="107.9626" r="8.0697" gradientUnits="userSpaceOnUse">
						<stop  offset="0" style="stop-color:#481E50;stop-opacity:0.7"/>
						<stop  offset="0.4387" style="stop-color:#481E50"/>
						<stop  offset="1" style="stop-color:#481E50;stop-opacity:0.4"/>
					</radialGradient>
					<path class="st53" d="M131.8,100.5l0,1c1.7,0,3.5,0.5,5.1,1.3c1.5,0.8,2.9,1.8,4.1,3.2c1.1,1.2,2,2.6,2.7,4.1
						c0.6,1.3,1.1,2.7,1.4,4l-0.1-0.2c-0.9-1-1.8-2-2.7-2.9c-1.2-1.2-2.3-2.1-3.3-2.9c-1.2-0.8-2.4-1.5-3.6-2
						c-1.1-0.4-2.2-0.7-3.7-0.9l-0.1,0c-1-0.2-1.7-1.1-1.6-2.2c0.1-0.9,0.9-1.6,1.9-1.6L131.8,100.5 M131.8,100.5
						c-1.4,0-2.6,1-2.9,2.5c-0.2,1.6,0.8,3.1,2.4,3.3l0.1,0c1.2,0.2,2.3,0.4,3.5,0.9c1.1,0.4,2.2,1.1,3.3,1.8
						c1.1,0.8,2.1,1.7,3.2,2.8c1,1,2,2.2,3.1,3.4l0,0c0.2,0.2,0.4,0.3,0.7,0.3c0.1,0,0.1,0,0.2,0c0.5-0.1,0.8-0.5,0.7-1
						c-0.3-1.6-0.8-3.2-1.5-4.8c-0.7-1.5-1.6-3-2.8-4.4c-1.2-1.3-2.7-2.6-4.4-3.4C135.7,101,133.8,100.5,131.8,100.5
						C131.8,100.5,131.8,100.5,131.8,100.5L131.8,100.5z"/>
				</g>
				<linearGradient id="SVGID_9_" gradientUnits="userSpaceOnUse" x1="162.3411" y1="102.0142" x2="143.9337" y2="110.5099">
					<stop  offset="0" style="stop-color:#FFFFFF"/>
					<stop  offset="1" style="stop-color:#FFFFFF;stop-opacity:0"/>
				</linearGradient>
				<path class="st54" d="M162.7,100.7c-1.1-0.3-2.2-0.5-3.4-0.5l-0.1,0c-1.1,0-2.2,0.2-3.4,0.5c-2.2,0.6-4.3,1.9-5.9,3.5
					c-1.5,1.6-2.7,3.5-3.4,5.6c-0.3,1-0.5,2.1-0.6,3.1c0,0.4,0,0.7,0,1c0.1-0.4,0.3-0.7,0.4-1c0.4-0.8,0.9-1.6,1.5-2.5
					c1.1-1.5,2.5-2.9,4.1-3.9c1.5-1,3.1-1.6,4.8-1.9c0.8-0.1,1.5-0.2,2.2-0.2c0.1,0,0.2,0,0.2,0c0.7,0,1.5,0.1,2.2,0.2l0.2,0l0.2,0
					c0.1,0,0.2,0,0.2,0c0.9,0,1.7-0.6,2-1.5C164.4,102.1,163.8,101,162.7,100.7z"/>
				<g>
					
						<radialGradient id="SVGID_10_" cx="152.2523" cy="119.1876" r="16.6759" gradientTransform="matrix(0.8986 -0.4387 0.3586 0.7345 -27.305 98.4362)" gradientUnits="userSpaceOnUse">
						<stop  offset="0.5025" style="stop-color:#B31B51"/>
						<stop  offset="0.8081" style="stop-color:#E666A1"/>
					</radialGradient>
					<path class="st55" d="M145.9,115c0.7-1.5,1.7-2.8,2.9-4c1.2-1.1,2.7-2.1,4.4-2.7c1.7-0.6,3.6-0.9,5.6-0.7c2,0.2,3.8,1,5.4,2
						l0.3,0.2c1.8,1.2,2.3,3.6,1.1,5.4c-1.2,1.8-3.6,2.3-5.4,1.1c-0.3-0.2-0.6-0.5-0.8-0.7c-0.6-0.7-1.2-1.2-2-1.6
						c-0.8-0.4-1.7-0.5-2.7-0.4c-2,0.2-4.3,1.3-5.8,3.1l-0.1,0.1c-0.6,0.7-1.7,0.8-2.4,0.2C145.7,116.6,145.5,115.7,145.9,115z"/>
					<radialGradient id="SVGID_11_" cx="155.9686" cy="112.5395" r="8.0687" gradientUnits="userSpaceOnUse">
						<stop  offset="0" style="stop-color:#481E50;stop-opacity:0.7"/>
						<stop  offset="0.4387" style="stop-color:#481E50"/>
						<stop  offset="1" style="stop-color:#481E50;stop-opacity:0.4"/>
					</radialGradient>
					<path class="st56" d="M157.3,107.6v1c0.4,0,0.8,0,1.3,0.1c1.7,0.2,3.4,0.9,5,1.9l0.3,0.2c1.3,0.9,1.7,2.7,0.8,4
						c-0.5,0.8-1.4,1.3-2.4,1.3c-0.6,0-1.1-0.2-1.6-0.5c-0.2-0.1-0.4-0.3-0.6-0.5c-0.7-0.8-1.5-1.4-2.4-1.8
						c-0.8-0.4-1.7-0.5-2.6-0.5c-0.2,0-0.4,0-0.6,0c-2.3,0.2-4.8,1.5-6.5,3.4l-0.1,0.1c-0.1,0.2-0.3,0.2-0.5,0.2
						c-0.1,0-0.3,0-0.5-0.2c-0.2-0.2-0.3-0.6-0.2-0.9c0.6-1.3,1.6-2.6,2.7-3.6c1.2-1.1,2.6-2,4-2.5c1.2-0.5,2.5-0.7,3.8-0.7V107.6
						 M157.3,107.6c-1.5,0-2.9,0.3-4.2,0.8c-1.7,0.6-3.1,1.6-4.4,2.7c-1.2,1.1-2.2,2.5-2.9,4c-0.3,0.7-0.2,1.5,0.4,2.1
						c0.3,0.3,0.7,0.4,1.1,0.4c0.5,0,1-0.2,1.3-0.6l0.1-0.1c1.5-1.8,3.8-2.9,5.8-3.1c0.2,0,0.4,0,0.5,0c0.8,0,1.5,0.2,2.2,0.4
						c0.8,0.4,1.4,0.9,2,1.6c0.2,0.3,0.5,0.5,0.8,0.7c0.7,0.4,1.4,0.6,2.1,0.6c1.3,0,2.5-0.6,3.3-1.8c1.2-1.8,0.7-4.2-1.1-5.4
						l-0.3-0.2c-1.6-1-3.5-1.8-5.4-2C158.3,107.6,157.8,107.6,157.3,107.6L157.3,107.6z"/>
				</g>
				<g>
					<radialGradient id="SVGID_12_" cx="140.2218" cy="108.8021" r="16.8016" gradientUnits="userSpaceOnUse">
						<stop  offset="0.5025" style="stop-color:#B31B51"/>
						<stop  offset="0.8081" style="stop-color:#E666A1"/>
					</radialGradient>
					<path class="st57" d="M144.2,116.4c-0.2-1.9-0.2-3.8-0.4-5.4c-0.1-0.8-0.2-1.6-0.4-2.3c0-0.2-0.1-0.4-0.1-0.5l-0.2-0.5
						c-0.1-0.3-0.2-0.6-0.4-0.9c-0.5-1.2-1.3-2.3-2.2-3.5c-0.9-1.2-2-2.4-3.1-3.7l-0.1-0.1c-1.3-1.7-1-4.1,0.7-5.4
						c1.5-1.2,3.6-1.1,5,0.2c1.4,1.3,2.7,2.9,3.8,4.6c0.3,0.5,0.5,0.9,0.8,1.4c0.2,0.5,0.5,1,0.7,1.5c0.2,0.5,0.4,1.1,0.6,1.6
						c0.1,0.6,0.3,1.1,0.4,1.7c0.1,0.6,0.2,1.2,0.1,1.7l0,0.9c0,0.3,0,0.6-0.1,0.8c-0.1,1.1-0.4,2.1-0.6,3.1
						c-0.6,1.9-1.4,3.6-2.4,5.3c-0.3,0.6-1,0.8-1.6,0.4C144.5,117.2,144.3,116.8,144.2,116.4L144.2,116.4z"/>
					<radialGradient id="SVGID_13_" cx="143.0713" cy="105.3438" r="9.729" gradientUnits="userSpaceOnUse">
						<stop  offset="0" style="stop-color:#481E50;stop-opacity:0.7"/>
						<stop  offset="0.4387" style="stop-color:#481E50"/>
						<stop  offset="1" style="stop-color:#481E50;stop-opacity:0.4"/>
					</radialGradient>
					<path class="st58" d="M140.5,94.2L140.5,94.2c0.7,0,1.4,0.3,1.9,0.8c1.4,1.3,2.6,2.8,3.7,4.4c0.3,0.5,0.5,0.9,0.8,1.4
						c0.2,0.3,0.3,0.7,0.5,1.1l0.2,0.3c0.1,0.4,0.3,0.8,0.4,1.2l0.1,0.3l0.1,0.4c0.1,0.4,0.2,0.8,0.2,1.1c0,0.2,0,0.3,0.1,0.5
						c0,0.4,0.1,0.8,0.1,1.1l0,0.8c0,0.3,0,0.5-0.1,0.8c-0.1,1.1-0.4,2.1-0.6,2.9c-0.5,1.7-1.2,3.2-2.3,5.1c0,0.1-0.1,0.1-0.1,0.1
						c0,0-0.1,0-0.1,0c-0.1,0-0.1-0.1-0.1-0.1c-0.1-1-0.2-2-0.2-3c0-0.8-0.1-1.6-0.2-2.4c-0.1-0.9-0.2-1.7-0.4-2.5
						c0-0.1,0-0.1-0.1-0.2c0-0.1,0-0.2-0.1-0.3l0,0l0,0l-0.2-0.5c-0.1-0.3-0.2-0.5-0.3-0.7c0-0.1-0.1-0.2-0.1-0.3l0,0l0,0
						c-0.6-1.4-1.5-2.6-2.4-3.8c-0.5-0.6-0.9-1.2-1.5-1.8c-0.5-0.6-1.1-1.3-1.6-2l-0.1-0.1c-0.5-0.6-0.7-1.3-0.6-2.1
						s0.5-1.4,1.1-1.9C139.2,94.4,139.8,94.2,140.5,94.2 M140.5,93.2c-0.8,0-1.7,0.3-2.4,0.8c-1.7,1.3-2,3.7-0.7,5.4l0.1,0.1
						c1,1.3,2.1,2.5,3.1,3.7c0.9,1.2,1.7,2.3,2.2,3.5c0.1,0.3,0.3,0.6,0.4,0.9l0.2,0.5c0,0.2,0.1,0.3,0.1,0.5
						c0.2,0.7,0.3,1.5,0.4,2.3c0.2,1.7,0.2,3.5,0.4,5.4l0,0c0,0.4,0.2,0.7,0.6,0.9c0.2,0.1,0.4,0.2,0.6,0.2c0.4,0,0.8-0.2,1-0.6
						c0.9-1.7,1.8-3.3,2.4-5.3c0.3-1,0.5-2,0.6-3.1c0-0.3,0.1-0.6,0.1-0.8l0-0.9c0-0.6-0.1-1.1-0.1-1.7c-0.1-0.6-0.2-1.1-0.4-1.7
						c-0.2-0.5-0.4-1.1-0.6-1.6c-0.2-0.5-0.4-1-0.7-1.5c-0.3-0.5-0.5-0.9-0.8-1.4c-1.1-1.8-2.4-3.3-3.8-4.6
						C142.4,93.5,141.4,93.2,140.5,93.2L140.5,93.2z"/>
				</g>
				<linearGradient id="SVGID_14_" gradientUnits="userSpaceOnUse" x1="127.8366" y1="111.9416" x2="140.5776" y2="111.9416">
					<stop  offset="0" style="stop-color:#FFFFFF"/>
					<stop  offset="1" style="stop-color:#FFFFFF;stop-opacity:0"/>
				</linearGradient>
				<path class="st59" d="M130.4,113.7c0.8-0.6,1.9-1.2,3.1-1.6c0.9-0.3,1.9-0.5,2.8-0.5c0.3,0,0.6,0,0.8,0c1.1,0.1,2.3,0.4,3.4,1
					c-0.9-0.8-1.9-1.5-3-1.9c-1.2-0.5-2.6-0.8-4-0.8l-0.2,0c-1.3,0-2.7,0.3-4.4,0.8l0,0l0,0c-0.1,0-0.3,0.1-0.4,0.2
					c-0.8,0.5-0.9,1.6-0.4,2.3c0.3,0.4,0.8,0.7,1.4,0.7C129.8,114,130.2,113.9,130.4,113.7z"/>
				<linearGradient id="SVGID_15_" gradientUnits="userSpaceOnUse" x1="130.5023" y1="106.9632" x2="143.7778" y2="106.9632">
					<stop  offset="0" style="stop-color:#FFFFFF"/>
					<stop  offset="1" style="stop-color:#FFFFFF;stop-opacity:0"/>
				</linearGradient>
				<path class="st60" d="M131.8,102.1c-0.6,0-1.2,0.5-1.3,1.1c-0.1,0.3,0,0.7,0.2,1c0.2,0.3,0.5,0.5,0.9,0.5l0.1,0
					c1.5,0.2,2.7,0.5,3.8,1c1.2,0.5,2.5,1.2,3.7,2c1.1,0.8,2.2,1.7,3.4,2.9c0.4,0.4,0.8,0.8,1.2,1.2c-0.2-0.5-0.4-1-0.6-1.5
					c-0.7-1.5-1.6-2.8-2.6-4c-1.1-1.3-2.4-2.3-3.9-3.1C135.1,102.5,133.4,102.1,131.8,102.1L131.8,102.1z"/>
				<linearGradient id="SVGID_16_" gradientUnits="userSpaceOnUse" x1="168.5082" y1="110.9774" x2="145.6956" y2="114.4386">
					<stop  offset="0" style="stop-color:#FFFFFF"/>
					<stop  offset="1" style="stop-color:#FFFFFF;stop-opacity:0"/>
				</linearGradient>
				<path class="st61" d="M164.3,114.5c0.7-1.1,0.4-2.5-0.7-3.2l-0.3-0.2c-1.5-1-3.1-1.6-4.8-1.8c-0.4-0.1-0.8-0.1-1.2-0.1
					c-1.2,0-2.5,0.2-3.6,0.7c-1.4,0.5-2.7,1.3-3.8,2.4c-1.1,1-2,2.2-2.6,3.5c0,0,0,0.1,0,0.2c0,0,0,0,0.1,0c0,0,0.1,0,0.1,0l0.1-0.1
					c1.8-2,4.4-3.4,6.9-3.6c0.2,0,0.4,0,0.7,0c1,0,2,0.2,2.8,0.6c0.9,0.4,1.8,1.1,2.6,2c0.1,0.2,0.3,0.3,0.5,0.4
					c0.4,0.2,0.8,0.4,1.3,0.4C163.1,115.5,163.8,115.1,164.3,114.5z"/>
				<linearGradient id="SVGID_17_" gradientUnits="userSpaceOnUse" x1="146.0987" y1="96.6387" x2="140.9069" y2="108.1237">
					<stop  offset="0" style="stop-color:#FFFFFF"/>
					<stop  offset="1" style="stop-color:#FFFFFF;stop-opacity:0"/>
				</linearGradient>
				<path class="st62" d="M145.6,113.3c0,0.5,0.1,1.1,0.1,1.6c0.7-1.3,1.2-2.5,1.6-3.8c0.2-0.8,0.5-1.7,0.6-2.8c0-0.3,0-0.5,0.1-0.7
					l0-0.8c0-0.3,0-0.7-0.1-1.1c0-0.1,0-0.3-0.1-0.5c-0.1-0.4-0.1-0.7-0.2-1.1c0-0.1-0.1-0.2-0.1-0.4l-0.1-0.3
					c-0.1-0.4-0.3-0.8-0.4-1.1l-0.2-0.3c-0.2-0.4-0.3-0.7-0.5-1c-0.2-0.4-0.5-0.9-0.7-1.3c-1-1.6-2.2-3-3.6-4.3
					c-0.4-0.4-1-0.6-1.5-0.6c-0.5,0-1,0.2-1.4,0.5c-0.5,0.4-0.8,0.9-0.8,1.5c-0.1,0.6,0.1,1.2,0.5,1.7l0.1,0.1
					c0.5,0.7,1.1,1.3,1.6,2c0.5,0.6,1,1.2,1.5,1.8c0.9,1.2,1.8,2.5,2.5,3.9l0,0l0,0c0,0.1,0.1,0.2,0.1,0.2c0.1,0.2,0.2,0.5,0.3,0.8
					l0.1,0.4l0,0l0,0c0,0.1,0.1,0.2,0.1,0.3c0,0.1,0,0.1,0,0.2c0.2,0.8,0.3,1.7,0.4,2.6C145.5,111.7,145.6,112.5,145.6,113.3z"/>
				<g>
					<g>
						<path class="st63" d="M145.1,181.5c-6.1,12-18.5,20.3-32.9,20.3c-4.9,0-9.6-1-13.9-2.7c-4.1-1.7-8.6,1.1-9,5.5
							c0,0.1,0,0.1,0,0.2c-0.4,3.8,2.5,7,6.2,7.2c1.2,0.1,2.4,0.1,3.6,0.1c20.8,0,39.2-10.2,50.6-25.9"/>
						<path class="st64" d="M145.5,181.7c-2.7,5.3-6.6,10-11.3,13.6c-4.8,3.5-10.4,6-16.4,6.9c-1.5,0.2-3,0.4-4.5,0.4
							c-1.5,0.1-3,0-4.5-0.1c-3-0.2-6-0.8-8.8-1.8c-0.7-0.2-1.4-0.5-2.1-0.8c-0.6-0.2-1.2-0.4-1.8-0.4c-1.2-0.1-2.5,0.3-3.5,1
							c-0.5,0.4-1,0.8-1.3,1.3c-0.4,0.5-0.6,1.1-0.8,1.7c-0.1,0.3-0.2,0.6-0.2,0.9c-0.1,0.3-0.1,0.7-0.1,1c0,0.6,0.1,1.2,0.3,1.8
							c0.4,1.2,1.2,2.3,2.3,3c0.5,0.3,1.1,0.6,1.7,0.8c0.3,0.1,0.6,0.1,1,0.2c0.3,0,0.7,0,1.1,0l2.2,0.1c0.7,0,1.4,0,2.2,0
							c0.7,0,1.4,0,2.2-0.1l2.2-0.2c5.8-0.5,11.5-1.9,16.9-4c5.4-2.2,10.5-5,15.1-8.6c4.6-3.6,8.7-7.8,12.1-12.5l0.8,0.5
							c-3.5,4.8-7.6,9.1-12.2,12.8c-4.6,3.7-9.8,6.7-15.3,8.9c-5.5,2.3-11.3,3.7-17.2,4.3l-2.2,0.2c-0.7,0-1.5,0.1-2.2,0.1
							c-0.7,0-1.5,0.1-2.2,0.1l-2.2-0.1c-0.4,0-0.7,0-1.1,0c-0.4,0-0.8-0.1-1.2-0.2c-0.8-0.2-1.6-0.5-2.3-0.9
							c-1.4-0.9-2.5-2.2-3.1-3.8c-0.3-0.8-0.5-1.6-0.5-2.5c0-0.4,0-0.8,0.1-1.2c0.1-0.4,0.1-0.8,0.3-1.2c0.5-1.6,1.5-3.1,2.9-4
							c1.4-1,3.1-1.5,4.8-1.3c0.8,0,1.7,0.3,2.4,0.6c0.7,0.3,1.3,0.5,2,0.8c2.7,0.9,5.5,1.6,8.4,1.8c1.4,0.1,2.9,0.2,4.3,0.1
							c1.4,0,2.9-0.2,4.3-0.3c5.7-0.8,11.2-3,15.9-6.3c4.7-3.4,8.6-7.8,11.2-13L145.5,181.7z"/>
					</g>
				</g>
				<linearGradient id="SVGID_18_" gradientUnits="userSpaceOnUse" x1="133.9893" y1="194.3808" x2="91.9827" y2="206.967">
					<stop  offset="5.618000e-03" style="stop-color:#005C97;stop-opacity:0"/>
					<stop  offset="0.1348" style="stop-color:#0B75BA;stop-opacity:0.4"/>
					<stop  offset="0.5231" style="stop-color:#1C9AD6"/>
					<stop  offset="0.5795" style="stop-color:#229CD7;stop-opacity:0.8816"/>
					<stop  offset="0.6551" style="stop-color:#33A3DA;stop-opacity:0.7231"/>
					<stop  offset="0.7415" style="stop-color:#4FAEDE;stop-opacity:0.542"/>
					<stop  offset="0.8359" style="stop-color:#76BDE5;stop-opacity:0.344"/>
					<stop  offset="0.9357" style="stop-color:#A7D1ED;stop-opacity:0.1348"/>
					<stop  offset="1" style="stop-color:#CBDFF3;stop-opacity:0"/>
				</linearGradient>
				<path class="st65" d="M134.4,195.6c-4.8,3.6-10.5,6.1-16.5,7.1c-1.5,0.2-3,0.4-4.5,0.5c-1.5,0.1-3,0.1-4.6,0
					c-3-0.2-6.1-0.8-9-1.8c-0.7-0.2-1.4-0.5-2.2-0.8c-0.5-0.2-1-0.3-1.6-0.3c-1.1,0-2.2,0.3-3,0.9c-0.4,0.3-0.8,0.7-1.1,1.1
					c-0.2,0.2-0.3,0.4-0.4,0.7c-0.1,0.2-0.2,0.5-0.3,0.7c0,0.1-0.1,0.3-0.1,0.4l-0.1,0.4c0,0.1,0,0.1,0,0.2c0,0.1,0,0.2,0,0.2l0,0.4
					c0,0.5,0.1,1.1,0.2,1.6c0.3,1,1,2,1.9,2.7c0.5,0.3,1,0.6,1.5,0.7c0.3,0.1,0.6,0.1,0.8,0.2c0.3,0,0.7,0,1.1,0.1l2.1,0.1
					c0.7,0,1.4,0,2.1,0c0.7,0,1.4,0,2.2-0.1l2.1-0.2c5.7-0.5,11.4-1.8,16.7-3.9c5.4-2.1,10.4-4.9,15-8.5c4.6-3.5,8.6-7.7,12.1-12.4
					l0.7,0.5l-3.9-4.1c-1.4,2.6-2.9,5-4.8,7.2C139,191.7,136.8,193.8,134.4,195.6z"/>
				<linearGradient id="SVGID_19_" gradientUnits="userSpaceOnUse" x1="77.4275" y1="199.5924" x2="150.1131" y2="191.4113">
					<stop  offset="0" style="stop-color:#FFFFFF;stop-opacity:0"/>
					<stop  offset="0.3882" style="stop-color:#FFFFFF"/>
					<stop  offset="0.4174" style="stop-color:#FFFFFF;stop-opacity:0.8605"/>
					<stop  offset="0.5971" style="stop-color:#FFFFFF;stop-opacity:0"/>
				</linearGradient>
				<path class="st66" d="M91.4,207.2l0-0.4c0-0.1,0-0.1,0-0.2c0-0.1,0-0.1,0-0.2l0.1-0.4c0-0.1,0.1-0.3,0.1-0.4
					c0.1-0.3,0.2-0.5,0.3-0.7c0.1-0.2,0.2-0.5,0.4-0.7c0.3-0.4,0.7-0.8,1.1-1.1c0.9-0.6,1.9-1,3-0.9c0.5,0,1,0.2,1.6,0.3
					c0.7,0.3,1.4,0.5,2.2,0.8c2.9,1,5.9,1.6,9,1.8c1.5,0.1,3.1,0.1,4.6,0c1.5,0,3-0.3,4.5-0.5c6-1,11.7-3.5,16.5-7.1
					c2.4-1.8,4.6-3.9,6.5-6.3c1.8-2.3,3.4-4.7,4.8-7.2l2.3,2.5c0.1-0.2,0.3-0.4,0.4-0.6l0.7,0.5l-3.9-4.1c-1.4,2.6-2.9,5-4.8,7.2
					c-1.9,2.3-4.1,4.4-6.5,6.3c-4.8,3.6-10.5,6.1-16.5,7.1c-1.5,0.2-3,0.4-4.5,0.5c-1.5,0.1-3,0.1-4.6,0c-3-0.2-6.1-0.8-9-1.8
					c-0.7-0.2-1.4-0.5-2.2-0.8c-0.5-0.2-1-0.3-1.6-0.3c-1.1,0-2.2,0.3-3,0.9c-0.4,0.3-0.8,0.7-1.1,1.1c-0.2,0.2-0.3,0.4-0.4,0.7
					c-0.1,0.2-0.2,0.5-0.3,0.7c0,0.1-0.1,0.3-0.1,0.4l-0.1,0.4c0,0.1,0,0.1,0,0.2c0,0.1,0,0.2,0,0.2l0,0.4c0,0.5,0.1,1.1,0.2,1.6
					c0.1,0.3,0.2,0.5,0.3,0.7C91.4,207.6,91.4,207.4,91.4,207.2z"/>
				<g class="st67">
					<linearGradient id="SVGID_20_" gradientUnits="userSpaceOnUse" x1="140.1679" y1="190.4875" x2="90.0195" y2="208.187">
						<stop  offset="5.618000e-03" style="stop-color:#005C97"/>
						<stop  offset="0.2819" style="stop-color:#0B75BA"/>
						<stop  offset="0.8119" style="stop-color:#1C9AD6"/>
						<stop  offset="0.8466" style="stop-color:#46AADD;stop-opacity:0.8158"/>
						<stop  offset="0.8988" style="stop-color:#7FC1E6;stop-opacity:0.538"/>
						<stop  offset="0.9437" style="stop-color:#A8D1ED;stop-opacity:0.2994"/>
						<stop  offset="0.9789" style="stop-color:#C2DBF1;stop-opacity:0.1124"/>
						<stop  offset="1" style="stop-color:#CBDFF3;stop-opacity:0"/>
					</linearGradient>
					<path class="st68" d="M112.4,202.8c1.5,0.2,3,0.3,4.5,0.3c6,0,12-1.4,17.3-4.1c5.3-2.7,9.8-6.7,13.3-11.3l0.2,0.2
						c0.5-0.7,1-1.3,1.5-2l0.4,0.3l-4.2-4.4c-2.7,5.2-6.5,9.9-11.3,13.4c-4.8,3.5-10.4,6-16.4,6.9c-1.5,0.2-3,0.4-4.5,0.4
						c-0.7,0.1-1.5,0.1-2.2,0C111.6,202.7,112,202.8,112.4,202.8z"/>
				</g>
				<g>
					<g>
						<path class="st63" d="M158.6,169.1c2.8,0.9,5.9,1.4,9,1.4c8.3,0,15.8-3.4,21.2-8.9c2.1-2.1,1.6-5.8-1-7.2c0,0-0.1,0-0.1,0
							c-2-1.1-4.4-0.4-5.7,1.3c-5.5,6.9-13.9,11.3-23.3,11.3"/>
						<path class="st64" d="M158.7,168.7c3.1,0.4,6,0.9,9,0.8c3-0.1,6-0.6,8.8-1.6c2.8-0.9,5.5-2.3,8-4.1c1.2-0.9,2.4-1.8,3.4-2.9
							c0.5-0.5,0.8-0.9,1.1-1.5c0.2-0.6,0.4-1.2,0.3-1.9c0-0.7-0.3-1.3-0.6-1.9c-0.4-0.6-1-1-1.7-1.3c-1.3-0.6-3-0.2-4,0.8
							c-0.3,0.2-0.5,0.5-0.7,0.8l-0.7,0.9c-0.5,0.6-1.1,1.2-1.6,1.7c-1.1,1.1-2.3,2.1-3.6,3.1c-5.1,3.7-11.4,5.7-17.7,5.6v-0.8
							c6.1-0.1,12.2-2,17.1-5.6c1.2-0.9,2.4-1.9,3.5-3c0.5-0.5,1.1-1.1,1.6-1.7l0.8-0.9c0.3-0.3,0.6-0.6,0.9-0.9
							c1.4-1,3.2-1.3,4.8-0.7c1.6,0.5,3,1.8,3.5,3.6c0.2,0.9,0.3,1.8,0.1,2.7c-0.2,0.9-0.8,1.8-1.4,2.4c-1.1,1.2-2.3,2.2-3.6,3.2
							c-1.3,1-2.7,1.8-4.1,2.5c-1.4,0.7-2.9,1.4-4.5,1.9c-3.1,1-6.3,1.4-9.5,1.4c-3.2-0.1-6.5-0.4-9.3-2L158.7,168.7z"/>
					</g>
				</g>
				<g>
					<g>
						<g>
							<defs>
								<path id="SVGID_21_" d="M168.7,124.6c-0.2-1.2-1.1-2.2-2.2-2.6c-9.2-3.4-19.1-5.2-29.4-5.2c-5.7,0-11.2,0.6-16.6,1.6
									c-0.8,0.2-1.2,1-0.9,1.8c2.9,7.1,4.5,14.9,4.5,23.1c0,11.9-3.4,23.1-9.4,32.5c-1.1,1.7-2.2,3.3-3.4,4.8
									c-1.2,1.5-1.8,3.4-1.8,5.3l0,0.6c0,7.4,5.8,13.8,13.1,13.8c2.9,0,6.1-2.4,9.1-2.8c1.1-0.2,2.2-0.2,3.3-0.2
									c1.9,0,3.8,0.3,5.6,0.7c3.6-2.7,7-5.7,10.1-9c12.2-13.1,19.6-30.6,19.6-49.8C170.2,134.1,169.7,129.3,168.7,124.6z"/>
							</defs>
							<clipPath id="SVGID_22_">
								<use xlink:href="#SVGID_21_"  style="overflow:visible;"/>
							</clipPath>
							<g class="st69">
								<g>
									<defs>
										<rect id="SVGID_23_" x="104.5" y="111.7" width="70.7" height="93.5"/>
									</defs>
									<clipPath id="SVGID_24_">
										<use xlink:href="#SVGID_23_"  style="overflow:visible;"/>
									</clipPath>
									<g style="clip-path:url(#SVGID_24_);">
										
											<image style="overflow:visible;" width="148" height="196" xlink:href="AE44E9B977FBBDB8.jpg"  transform="matrix(0.48 0 0 0.48 104.3643 111.3304)">
										</image>
									</g>
								</g>
							</g>
						</g>
						<linearGradient id="SVGID_25_" gradientUnits="userSpaceOnUse" x1="108.364" y1="158.2567" x2="171.342" y2="158.2567">
							<stop  offset="0.4157" style="stop-color:#00659F"/>
							<stop  offset="0.7664" style="stop-color:#007CB5"/>
							<stop  offset="1" style="stop-color:#0085BE"/>
						</linearGradient>
						<path class="st70" d="M168.3,124.7c-0.2-0.7-0.6-1.4-1.2-1.8c-0.3-0.2-0.6-0.4-1-0.5l-1.2-0.4c-1.6-0.5-3.2-1-4.8-1.5
							c-3.2-0.9-6.5-1.5-9.9-2c-6.6-0.9-13.4-1-20-0.4c-1.7,0.2-3.3,0.4-5,0.6c-0.8,0.1-1.6,0.3-2.5,0.4l-1.2,0.2l-0.6,0.1l-0.2,0
							c-0.1,0-0.1,0-0.1,0c0,0,0,0,0,0c0,0-0.1,0.1-0.1,0.1c0,0,0,0,0,0.1l0.2,0.6c0.3,0.8,0.6,1.6,0.9,2.4c0.6,1.6,1.1,3.3,1.5,4.9
							c1.7,6.7,2.3,13.6,1.7,20.5c-0.6,6.9-2.3,13.6-5.1,19.9c-1.4,3.1-3,6.2-5,9l-3,4.2c-0.9,1.2-1.5,2.8-1.6,4.3
							c-0.1,1.6,0,3.2,0.5,4.8c0.4,1.5,1.2,3,2.1,4.3c1.9,2.6,4.8,4.5,8,4.9c3.2,0.8,6.1-1.4,9.5-2.3c3.5-0.8,6.9-0.5,10.3,0.3
							l-0.4,0.1c5.5-4.1,10.5-9,14.7-14.4c4.2-5.5,7.6-11.5,10.1-17.9c2.5-6.4,4-13.2,4.5-20.1C170.1,138.3,169.7,131.4,168.3,124.7
							z M169.2,124.5c1.4,6.8,1.7,13.8,1.2,20.8c-0.6,6.9-2.2,13.8-4.7,20.2c-2.5,6.5-5.9,12.6-10.1,18.2
							c-4.2,5.5-9.2,10.5-14.8,14.6l-0.2,0.1l-0.2-0.1c-1.6-0.4-3.3-0.6-4.9-0.7c-0.8,0-1.7,0-2.5,0.1c-0.8,0.1-1.6,0.2-2.4,0.4
							c-1.6,0.5-3.1,1.2-4.7,1.8c-0.8,0.3-1.7,0.6-2.6,0.7c-0.5,0.1-0.9,0.1-1.4,0c-0.4,0-0.9,0-1.3-0.1c-3.5-0.5-6.7-2.5-8.9-5.3
							c-1.1-1.4-1.9-3-2.4-4.7c-0.5-1.7-0.7-3.5-0.6-5.2c0.1-1.8,0.7-3.6,1.8-5.1l2.8-4.2c1.9-2.8,3.4-5.8,4.7-8.8
							c2.6-6.1,4.2-12.7,4.7-19.3c0.5-6.6-0.1-13.3-1.8-19.8c-0.4-1.6-0.9-3.2-1.5-4.8c-0.3-0.8-0.6-1.6-0.9-2.3l-0.2-0.6
							c-0.1-0.3-0.2-0.7-0.2-1.1c0.1-0.8,0.5-1.5,1.2-1.9c0.2-0.1,0.4-0.2,0.6-0.2c0.1,0,0.2,0,0.2,0l0.2,0l0.6-0.1l1.3-0.2
							c0.8-0.1,1.7-0.3,2.5-0.4c1.7-0.2,3.4-0.4,5.1-0.5c6.8-0.5,13.7-0.1,20.4,1.1c3.4,0.6,6.7,1.4,9.9,2.4c1.6,0.5,3.2,1,4.9,1.6
							l1.2,0.4c0.4,0.1,0.9,0.4,1.2,0.7C168.5,122.7,169,123.5,169.2,124.5z"/>
					</g>
				</g>
				<linearGradient id="SVGID_26_" gradientUnits="userSpaceOnUse" x1="146.8857" y1="120.9108" x2="149.9536" y2="176.369">
					<stop  offset="0" style="stop-color:#C8C8C8"/>
					<stop  offset="0.1898" style="stop-color:#BFBFBF;stop-opacity:0.7652"/>
					<stop  offset="0.8084" style="stop-color:#A7A7A6;stop-opacity:0"/>
				</linearGradient>
				<path class="st71" d="M167.9,155.3c0.8-3.3,1.3-6.8,1.6-10.2l0.2-2.6l0-2.6c0-1.7,0-3.4-0.1-5.1c-0.2-3.4-0.7-6.8-1.4-10.2
					c-0.1-0.7-0.6-1.3-1.1-1.7c-0.3-0.2-0.6-0.3-1-0.5l-1.2-0.4c-1.6-0.5-3.2-1-4.8-1.4c-3-0.8-6.1-1.4-9.2-1.8
					c1.4,8.1,2.3,16.4,1.8,24.7c-2.8,44.8-23.1,51.6-23.3,53.7c0,0,0,0.1,0,0.1c0.3-0.1,0.7-0.2,1-0.3c0.4-0.1,0.9-0.2,1.3-0.3
					c0.4-0.1,0.9-0.1,1.3-0.1c0.9-0.1,1.7-0.1,2.6-0.1c1.6,0.1,3.3,0.3,4.9,0.7c2.7-2,5.2-4.2,7.6-6.5c2.5-2.4,4.7-5,6.8-7.7
					c4.2-5.4,7.6-11.5,10.1-17.9C166.1,162,167.1,158.7,167.9,155.3z"/>
				<linearGradient id="SVGID_27_" gradientUnits="userSpaceOnUse" x1="143.3491" y1="148.6972" x2="121.6378" y2="180.4775">
					<stop  offset="5.618000e-03" style="stop-color:#005C97"/>
					<stop  offset="0.2819" style="stop-color:#0B75BA"/>
					<stop  offset="0.6331" style="stop-color:#1C9AD6"/>
					<stop  offset="0.7007" style="stop-color:#46AADD;stop-opacity:0.8158"/>
					<stop  offset="0.8026" style="stop-color:#7FC1E6;stop-opacity:0.538"/>
					<stop  offset="0.8901" style="stop-color:#A8D1ED;stop-opacity:0.2994"/>
					<stop  offset="0.9588" style="stop-color:#C2DBF1;stop-opacity:0.1124"/>
					<stop  offset="1" style="stop-color:#CBDFF3;stop-opacity:0"/>
				</linearGradient>
				<path class="st72" d="M121.2,199.1c-3.1-0.7-5.8-2.8-7.5-5.5c-0.8-1.3-1.4-2.9-1.7-4.4l-0.2-1.2l-0.1-1.2c0-0.4,0-0.8,0-1.2
					c0-0.4,0.1-0.9,0.1-1.2c0.2-1.5,0.9-2.9,1.9-4c1.1-1.2,2.3-2.5,3.3-3.9c2.1-2.7,4.1-5.6,5.7-8.6c2.6-4.7,4.5-9.7,5.8-14.9
					c-1.4,0.7-2.9,1.2-4.3,1.3c-0.9,4.7-2.3,9.4-4.3,13.8c-1.4,3.2-3.1,6.2-5,9c-0.9,1.4-2,2.8-3,4.1c-0.9,1.2-1.5,2.7-1.5,4.2
					c0,0.3,0,0.8,0,1.2c0,0.4,0,0.8,0.1,1.2l0.2,1.2l0.3,1.2c0.4,1.5,1.1,3,2.1,4.3c1.9,2.6,4.7,4.4,7.9,4.9c1,0.2,2,0.2,2.9,0
					C123,199.4,122.1,199.4,121.2,199.1z"/>
				<g>
					<path class="st73" d="M128.3,148.8c-1.9-0.3-3.7-0.4-5.7-0.4c-10.9,0-20.8,4.5-27.9,11.7c-2.7,2.8-2.1,7.5,1.4,9.3
						c0,0,0.1,0,0.1,0.1c2.5,1.4,5.7,0.7,7.5-1.6c6.1-7.8,15.2-13.2,25.5-14.6"/>
					<path class="st64" d="M128.2,149.6c-3.5-0.7-7.1-0.7-10.6-0.3c-3.5,0.4-7,1.4-10.3,2.7c-3.3,1.4-6.3,3.3-9.1,5.5
						c-0.7,0.6-1.3,1.2-2,1.8c-0.6,0.6-1.3,1.2-1.8,1.9c-0.9,1.4-1.2,3.2-0.7,4.7c0.3,0.8,0.8,1.4,1.4,1.9c0.3,0.2,0.6,0.4,1,0.6
						c0.2,0.1,0.3,0.1,0.5,0.2c0.2,0,0.4,0.1,0.5,0.1c1.4,0.3,2.8,0,4-0.6c0.3-0.2,0.6-0.4,0.8-0.6c0.3-0.2,0.4-0.5,0.8-0.9
						c0.6-0.7,1.2-1.4,1.8-2.1c1.3-1.4,2.7-2.6,4.1-3.8c5.8-4.6,13.1-7.5,20.4-7.9c0.3,0,0.5,0.2,0.5,0.5c0,0.3-0.2,0.5-0.4,0.5
						c-7,1.5-13.4,4.6-18.7,9.1c-1.3,1.1-2.5,2.3-3.7,3.6c-0.6,0.6-1.1,1.3-1.7,2c-0.2,0.3-0.6,0.8-1,1.2c-0.4,0.4-0.9,0.7-1.3,1
						c-1.9,1.2-4.5,1.2-6.4,0.2c-1.9-1-3.2-2.9-3.6-4.8c-0.5-1.9-0.2-4,1-5.6c0.6-0.8,1.3-1.4,1.9-2c0.7-0.6,1.4-1.2,2.1-1.8
						c2.8-2.3,6-4.1,9.3-5.6c3.3-1.4,6.9-2.5,10.5-2.9c3.6-0.6,7.3-0.6,10.9-0.2c0.4,0,0.7,0.4,0.6,0.8
						C129,149.3,128.6,149.6,128.2,149.6C128.2,149.6,128.2,149.6,128.2,149.6z"/>
				</g>
				<g>
					<g>
						<path class="st73" d="M119.1,199.7c3.6,0.8,9.9-1.9,12.6-2.3c1.1-0.2,2.2-0.2,3.3-0.2c9.9,0,18.3,6.1,21.7,14.7
							c1.6,4.1,6.3,6,10.3,4.2c0.1,0,0.1,0,0.2-0.1c4.1-1.8,5.8-6.7,3.7-10.7c-5.8-10.7-17-17.9-30-17.9c-2.9,0-5.7,0.4-8.4,1"/>
						<path class="st64" d="M119.3,198.8c1,0.2,2.1,0.1,3.2,0c1.1-0.2,2.3-0.4,3.4-0.7l3.4-0.9c1.1-0.3,2.5-0.6,3.7-0.6
							c4.9-0.3,9.9,0.9,14.1,3.4c4.2,2.5,7.5,6.3,9.7,10.7c0.3,0.6,0.6,1.1,0.8,1.6c0.3,0.5,0.6,0.9,1,1.3c0.8,0.7,1.7,1.3,2.6,1.6
							c1,0.3,2,0.4,2.9,0.3c1-0.1,1.9-0.4,2.8-0.9c0.8-0.5,1.7-1,2.3-1.8c0.6-0.8,1.1-1.7,1.3-2.7c0.2-1,0.1-2-0.2-3
							c-0.3-0.9-0.9-1.9-1.5-3c-2.5-3.9-5.7-7.4-9.5-10c-7.6-5.3-17.6-7.2-26.8-5c-0.3,0.1-0.5-0.1-0.6-0.4
							c-0.1-0.3,0.1-0.5,0.4-0.6c9.4-2.5,19.8-0.9,28,4.5c2,1.4,4,2.9,5.7,4.6c1.7,1.8,3.3,3.7,4.6,5.7c0.6,1.1,1.3,2,1.8,3.4
							c0.4,1.3,0.6,2.7,0.4,4.1c-0.2,1.4-0.7,2.7-1.4,3.9c-0.7,1.2-1.8,2.2-3,2.9c-1.2,0.7-2.7,1.1-4.1,1.1c-1.4,0-2.8-0.3-4-1
							c-1.2-0.6-2.3-1.6-3.1-2.6c-0.8-1.1-1.2-2.4-1.6-3.4c-1.7-4.3-5-8-9.1-10.3c-4-2.3-8.8-3.3-13.4-2.9c-1.2,0.1-2.2,0.3-3.4,0.7
							l-3.4,1c-1.2,0.3-2.4,0.6-3.6,0.7c-1.2,0.2-2.5,0.2-3.8-0.1l0,0c-0.4-0.1-0.7-0.5-0.6-1C118.4,199,118.8,198.7,119.3,198.8z"
							/>
					</g>
				</g>
				<linearGradient id="SVGID_28_" gradientUnits="userSpaceOnUse" x1="131.7684" y1="191.4579" x2="168.8192" y2="213.4052">
					<stop  offset="5.618000e-03" style="stop-color:#005C97;stop-opacity:0"/>
					<stop  offset="0.1348" style="stop-color:#0B75BA;stop-opacity:0.4"/>
					<stop  offset="0.5231" style="stop-color:#1C9AD6"/>
					<stop  offset="0.5795" style="stop-color:#229CD7;stop-opacity:0.8816"/>
					<stop  offset="0.6551" style="stop-color:#33A3DA;stop-opacity:0.7231"/>
					<stop  offset="0.7415" style="stop-color:#4FAEDE;stop-opacity:0.542"/>
					<stop  offset="0.8359" style="stop-color:#76BDE5;stop-opacity:0.344"/>
					<stop  offset="0.9357" style="stop-color:#A7D1ED;stop-opacity:0.1348"/>
					<stop  offset="1" style="stop-color:#CBDFF3;stop-opacity:0"/>
				</linearGradient>
				<path class="st74" d="M122.3,197.8c1.1-0.1,2.2-0.4,3.3-0.6l3.5-0.9c0.6-0.2,1.2-0.3,1.9-0.4c0.4-0.1,0.7-0.1,1-0.1
					c0.3,0,0.6-0.1,1-0.1c5.1-0.3,10.2,1,14.5,3.7l1.6,1.1c0.5,0.4,1,0.7,1.5,1.2c0.5,0.4,0.9,0.8,1.4,1.3l0.7,0.7
					c0.2,0.2,0.5,0.4,0.7,0.7c1.7,1.8,3.1,3.9,4.3,6.1l0.5,0.8l0.1,0.2l0.1,0.2l0.2,0.3c0.1,0.2,0.3,0.4,0.5,0.5
					c0.2,0.2,0.4,0.3,0.5,0.5c0.7,0.5,1.6,0.9,2.4,1c0.2,0,0.4,0,0.6,0.1l0.6,0c0.4,0,0.8-0.1,1.1-0.2l0.3,0l0.3-0.1
					c0.2,0,0.3-0.1,0.5-0.2c0.2-0.1,0.3-0.2,0.5-0.2c0.1,0,0.2-0.1,0.3-0.1c0.1,0,0.2-0.1,0.2-0.1c0.6-0.3,1.3-0.6,1.9-1.1
					c0.6-0.5,1-1.2,1.2-2c0.2-0.8,0.1-1.6-0.1-2.4c-0.1-0.2-0.1-0.4-0.2-0.6l-0.1-0.3l-0.2-0.4l-0.8-1.5c-2.3-3.8-5.4-7.2-9-9.8
					c-7.3-5.3-17-7.3-26.1-5.3c-0.4,0.1-0.8-0.1-1.1-0.4l-10.4,8.7C121.6,197.9,122,197.9,122.3,197.8z"/>
				<linearGradient id="SVGID_29_" gradientUnits="userSpaceOnUse" x1="142.5711" y1="191.7093" x2="185.0497" y2="216.4885">
					<stop  offset="0" style="stop-color:#FFFFFF;stop-opacity:0"/>
					<stop  offset="0.3882" style="stop-color:#FFFFFF"/>
					<stop  offset="0.4174" style="stop-color:#FFFFFF;stop-opacity:0.8605"/>
					<stop  offset="0.5971" style="stop-color:#FFFFFF;stop-opacity:0"/>
				</linearGradient>
				<path class="st75" d="M130.5,190.8c9.7-2,20,0.3,27.7,6.1c3.9,2.9,7.1,6.5,9.5,10.6l0.8,1.6l0.2,0.4l0.1,0.3
					c0.1,0.2,0.1,0.4,0.2,0.6c0.1-0.2,0.1-0.4,0.2-0.6c0.2-0.8,0.1-1.6-0.1-2.4c-0.1-0.2-0.1-0.4-0.2-0.6l-0.1-0.3l-0.2-0.4
					l-0.8-1.5c-2.3-3.8-5.4-7.2-9-9.8c-7.3-5.3-17-7.3-26.1-5.3c-0.4,0.1-0.8-0.1-1.1-0.4l-1.8,1.5
					C130,190.8,130.3,190.9,130.5,190.8z"/>
				<g>
					<path class="st64" d="M153.7,147.6c-7.5,0.1-15-1.6-21.8-5.1l0.8-1.6c6.4,3.4,13.6,5.3,20.9,5.3V147.6z"/>
				</g>
				<g>
					<path class="st64" d="M152.7,146.3c5.6-0.1,11.1-1.2,16.3-3.2l0.7,1.7c-5.4,2-11.2,3-16.9,2.9V146.3z"/>
				</g>
				<g>
					<path class="st76" d="M167,145c-4.2,1.3-8.7,1.9-13.3,1.9c-6.4,0-12.5-1.3-18.1-3.7c2.3,3.9,2.9,7.1,4,10
						c0.5,1.3,1.5,2.4,2.8,3c7.9,3.5,17.1,1,18.8,0.1C161.5,151.7,163.7,147.9,167,145z"/>
					<path class="st64" d="M166.7,145.2c-0.1,0.1-0.2,0.2-0.2,0.3c0,0.1-0.1,0.1-0.3,0.1l-1,0.3c-0.7,0.2-1.3,0.3-2,0.5
						c-1.3,0.3-2.6,0.5-4,0.6c-2.7,0.3-5.4,0.4-8.1,0.3c-5.4-0.3-10.7-1.5-15.7-3.6l0,0l0.5-0.6c0.8,1.2,1.6,2.5,2.2,3.8
						c0.6,1.3,1.1,2.7,1.6,4c0.2,0.7,0.5,1.3,0.7,2c0.2,0.6,0.5,1.1,1,1.5c0.4,0.4,0.9,0.7,1.4,1c0.6,0.2,1.2,0.5,1.9,0.7
						c1.3,0.4,2.6,0.7,4,0.8c1.4,0.1,2.7,0.2,4.1,0.2c1.4,0,2.7-0.2,4.1-0.4c0.7-0.1,1.4-0.2,2-0.4c0.6-0.2,1.3-0.4,1.8-0.6l0,0
						l-0.5,0.7c0.3-2.3,1-4.5,2.1-6.5c0.6-1,1.2-1.9,2-2.8c0.4-0.4,0.8-0.8,1.2-1.2l0.6-0.6C166.2,145.2,166.4,145.3,166.7,145.2z
						 M167.8,144.6c0,0.2-0.1,0.5-0.2,0.9c-0.1,0.3-0.4,0.6-0.6,0.8l-0.6,0.6c-0.4,0.4-0.7,0.8-1,1.2c-0.6,0.8-1.2,1.7-1.7,2.6
						c-1,1.8-1.5,3.8-1.7,5.9l0,0.5l-0.4,0.2l0,0c-0.8,0.4-1.5,0.6-2.2,0.9c-0.7,0.2-1.4,0.4-2.2,0.6c-1.4,0.3-2.9,0.5-4.4,0.6
						c-3,0.2-6-0.2-8.8-1.1c-0.7-0.2-1.4-0.5-2.1-0.8c-0.8-0.4-1.5-0.9-2-1.5c-0.6-0.6-1-1.4-1.2-2.2c-0.2-0.7-0.5-1.4-0.7-2.1
						c-0.7-2.8-1.5-5.4-2.8-8l-0.5-1l1,0.4l0,0c4.9,2,10.1,3.1,15.4,3.3c2.6,0.1,5.3,0,7.9-0.4c1.3-0.2,2.6-0.4,3.9-0.7
						c0.6-0.1,1.3-0.3,1.9-0.5l0.9-0.3l0.3-0.1c0.2,0,0.4-0.1,0.6-0.1C167.2,144.3,167.5,144.5,167.8,144.6z"/>
				</g>
				<path class="st76" d="M167,145c-4.2,1.3-8.7,1.9-13.3,1.9c-6.4,0-12.5-1.3-18.1-3.7c2.3,3.9,2.9,7.1,4,10c0.5,1.3,1.5,2.4,2.8,3
					c7.9,3.5,17.1,1,18.8,0.1C161.5,151.7,163.7,147.9,167,145z"/>
				<path class="st77" d="M147.9,153.2c-1-0.2-3.4-1.2-3.5-1.4c0.8,0.1,3.5,0.8,7.2,1c0.2-1.9,0.5-3.9,0.7-6
					c-5.9-0.2-11.6-1.4-16.7-3.6c2.3,3.9,2.9,7.1,4,10c0.5,1.3,1.5,2.4,2.8,3c2.8,1.3,5.8,1.8,8.5,1.8c0.3-1.4,0.4-2.7,0.6-4.2
					C150.3,153.7,149.1,153.5,147.9,153.2z"/>
				<path class="st64" d="M166.7,145.2c-0.1,0.1-0.2,0.2-0.2,0.3c0,0.1-0.1,0.1-0.3,0.1l-1,0.3c-0.7,0.2-1.3,0.3-2,0.5
					c-1.3,0.3-2.6,0.5-4,0.6c-2.7,0.3-5.4,0.4-8.1,0.3c-5.4-0.3-10.7-1.5-15.7-3.6l0,0l0.5-0.6c0.8,1.2,1.6,2.5,2.2,3.8
					c0.6,1.3,1.1,2.7,1.6,4c0.2,0.7,0.5,1.3,0.7,2c0.2,0.6,0.5,1.1,1,1.5c0.4,0.4,0.9,0.7,1.4,1c0.6,0.2,1.2,0.5,1.9,0.7
					c1.3,0.4,2.6,0.7,4,0.8c1.4,0.1,2.7,0.2,4.1,0.2c1.4,0,2.7-0.2,4.1-0.4c0.7-0.1,1.4-0.2,2-0.4c0.6-0.2,1.3-0.4,1.8-0.6l0,0
					l-0.5,0.7c0.3-2.3,1-4.5,2.1-6.5c0.6-1,1.2-1.9,2-2.8c0.4-0.4,0.8-0.8,1.2-1.2l0.6-0.6c0.1,0,0.1-0.1,0.2,0
					C166.4,145.2,166.5,145.2,166.7,145.2z M167.8,144.6c0,0.2-0.1,0.5-0.2,0.9c-0.1,0.3-0.4,0.6-0.6,0.8l-0.6,0.6
					c-0.4,0.4-0.7,0.8-1,1.2c-0.6,0.8-1.2,1.7-1.7,2.6c-1,1.8-1.5,3.8-1.7,5.9l0,0.5l-0.4,0.2l0,0c-0.8,0.4-1.5,0.6-2.2,0.9
					c-0.7,0.2-1.4,0.4-2.2,0.6c-1.4,0.3-2.9,0.5-4.4,0.6c-3,0.2-6-0.2-8.8-1.1c-0.7-0.2-1.4-0.5-2.1-0.8c-0.8-0.4-1.5-0.9-2-1.5
					c-0.6-0.6-1-1.4-1.3-2.2c-0.2-0.7-0.5-1.4-0.7-2.1c-0.7-2.8-1.5-5.4-2.8-8l-0.5-1l1,0.4l0,0c4.9,2,10.1,3.1,15.4,3.3
					c2.6,0.1,5.3,0,7.9-0.4c1.3-0.2,2.6-0.4,3.9-0.7c0.6-0.1,1.3-0.3,1.9-0.5l0.9-0.3l0.3-0.1c0.2,0,0.4-0.1,0.6-0.1
					C167.2,144.3,167.5,144.5,167.8,144.6z"/>
				<path class="st64" d="M161.7,152.7c0,0-0.5,0.1-1.5,0.3c-4.2,0.8-8.5,0.6-12.7-0.4c-1-0.2-2-0.5-3-0.8l0,0
					c1.7,0.3,3.3,0.6,5,0.8c2.5,0.3,5,0.3,7.5,0c3.3-0.4,4.8-1,4.8-1L161.7,152.7z"/>
				<g>
					<path class="st64" d="M135,139.3c-0.1,0.8-0.4,1.4-0.9,2c-0.4,0.6-1,1-1.6,1.3c-0.6,0.3-1.3,0.6-2,0.6c-0.7,0.1-1.4,0-2.2-0.3
						c0.6-0.3,1.2-0.5,1.7-0.8c0.6-0.3,1.1-0.5,1.7-0.9c0.6-0.3,1.1-0.6,1.6-1C133.9,140,134.5,139.7,135,139.3z"/>
				</g>
				<path class="st76" d="M141,131.7c-0.4-0.3-1.5-0.5-2,0.7c-0.3,0.8,0,1.3,0.4,1.6C139.5,133,140.1,132.1,141,131.7z"/>
				<g>
					<g>
						<radialGradient id="SVGID_30_" cx="161.8414" cy="135.445" r="3.0832" gradientUnits="userSpaceOnUse">
							<stop  offset="0" style="stop-color:#00659F"/>
							<stop  offset="0.5843" style="stop-color:#00659F"/>
							<stop  offset="1" style="stop-color:#1C1635"/>
						</radialGradient>
						<circle class="st78" cx="162.9" cy="136.7" r="3.1"/>
						<linearGradient id="SVGID_31_" gradientUnits="userSpaceOnUse" x1="159.8228" y1="136.653" x2="165.9893" y2="136.653">
							<stop  offset="0" style="stop-color:#00659F"/>
							<stop  offset="0.5843" style="stop-color:#00659F"/>
							<stop  offset="1" style="stop-color:#1C1635"/>
						</linearGradient>
						<path class="st79" d="M162.9,133.9c1.5,0,2.7,1.2,2.8,2.7c0,0.7-0.2,1.5-0.8,2c-0.5,0.5-1.2,0.9-2,0.9l-0.1,0
							c-1.5,0-2.7-1.2-2.8-2.7c0-0.7,0.2-1.5,0.8-2C161.4,134.2,162.1,133.9,162.9,133.9L162.9,133.9 M162.9,133.6c0,0-0.1,0-0.1,0
							c-1.7,0.1-3,1.5-3,3.2c0.1,1.7,1.4,3,3.1,3c0,0,0.1,0,0.1,0c1.7-0.1,3-1.5,3-3.2C165.9,134.9,164.6,133.6,162.9,133.6
							L162.9,133.6z"/>
					</g>
					<g>
						<linearGradient id="SVGID_32_" gradientUnits="userSpaceOnUse" x1="160.2787" y1="135.6996" x2="163.321" y2="135.6996">
							<stop  offset="0" style="stop-color:#FFFFFF"/>
							<stop  offset="1" style="stop-color:#FFFFFF;stop-opacity:0"/>
						</linearGradient>
						<path class="st80" d="M163,135c0.5-0.3,0.4-1.1-0.2-1.1c0,0,0,0,0,0h0l0,0c-0.4,0-0.8,0.1-1.2,0.3c-0.8,0.5-1.3,1.3-1.2,2.2
							c0,0.3,0.1,0.6,0.2,0.9c0.1,0.2,0.3,0.2,0.4,0C161.2,136.3,162,135.5,163,135z"/>
					</g>
					<linearGradient id="SVGID_33_" gradientUnits="userSpaceOnUse" x1="162.3602" y1="136.5197" x2="164.7848" y2="136.5197">
						<stop  offset="0" style="stop-color:#FFFFFF"/>
						<stop  offset="1" style="stop-color:#FFFFFF;stop-opacity:0"/>
					</linearGradient>
					<circle class="st81" cx="163.6" cy="136.5" r="1.2"/>
					<linearGradient id="SVGID_34_" gradientUnits="userSpaceOnUse" x1="162.356" y1="136.5197" x2="164.0687" y2="136.5197">
						<stop  offset="0" style="stop-color:#FFFFFF"/>
						<stop  offset="1" style="stop-color:#FFFFFF;stop-opacity:0"/>
					</linearGradient>
					<circle class="st82" cx="163.2" cy="136.5" r="0.9"/>
					<linearGradient id="SVGID_35_" gradientUnits="userSpaceOnUse" x1="160.8402" y1="135.2813" x2="161.3148" y2="135.2813">
						<stop  offset="0" style="stop-color:#FFFFFF"/>
						<stop  offset="1" style="stop-color:#FFFFFF;stop-opacity:0"/>
					</linearGradient>
					<circle class="st83" cx="161.1" cy="135.3" r="0.2"/>
					<circle class="st76" cx="163.6" cy="136.7" r="0.5"/>
					
						<linearGradient id="SVGID_36_" gradientUnits="userSpaceOnUse" x1="465.0013" y1="-872.046" x2="466.901" y2="-872.046" gradientTransform="matrix(0.9753 0.2209 -0.2209 0.9753 -485.5086 883.0307)">
						<stop  offset="0" style="stop-color:#FFFFFF"/>
						<stop  offset="1" style="stop-color:#FFFFFF;stop-opacity:0"/>
					</linearGradient>
					<path class="st84" d="M162.6,134.8c0.1,0,0.1-0.2,0-0.2c-0.4-0.3-1.3-0.4-1.9,0.5c-0.3,0.5-0.3,0.9-0.2,1.3
						c0.1,0.2,0.3,0.2,0.4,0C161.3,135.6,161.9,135.1,162.6,134.8z"/>
					
						<linearGradient id="SVGID_37_" gradientUnits="userSpaceOnUse" x1="465.1552" y1="-872.256" x2="466.5643" y2="-872.256" gradientTransform="matrix(0.9753 0.2209 -0.2209 0.9753 -485.5086 883.0307)">
						<stop  offset="0" style="stop-color:#FFFFFF"/>
						<stop  offset="1" style="stop-color:#FFFFFF;stop-opacity:0"/>
					</linearGradient>
					<path class="st85" d="M162.3,134.8c0.1,0,0.1-0.2,0-0.2c-0.3-0.2-0.9-0.2-1.4,0.4c-0.2,0.4-0.2,0.7-0.1,1c0,0.1,0.2,0.1,0.3,0
						C161.3,135.4,161.7,135,162.3,134.8z"/>
				</g>
				<g>
					<g>
						<radialGradient id="SVGID_38_" cx="140.8195" cy="132.9808" r="5.0908" gradientUnits="userSpaceOnUse">
							<stop  offset="0" style="stop-color:#00659F"/>
							<stop  offset="0.5843" style="stop-color:#00659F"/>
							<stop  offset="1" style="stop-color:#1C1635"/>
						</radialGradient>
						<circle class="st86" cx="142.6" cy="135" r="5.1"/>
						<linearGradient id="SVGID_39_" gradientUnits="userSpaceOnUse" x1="137.4866" y1="134.9752" x2="147.6682" y2="134.9752">
							<stop  offset="0" style="stop-color:#00659F"/>
							<stop  offset="0.5843" style="stop-color:#00659F"/>
							<stop  offset="1" style="stop-color:#1C1635"/>
						</linearGradient>
						<path class="st87" d="M142.6,130.4L142.6,130.4c2.5,0,4.5,2,4.6,4.5c0.1,2.5-1.9,4.7-4.5,4.8c-0.1,0-0.1,0-0.2,0
							c-2.5,0-4.5-2-4.6-4.5c0-1.2,0.4-2.4,1.2-3.3c0.8-0.9,2-1.4,3.2-1.5C142.5,130.4,142.5,130.4,142.6,130.4 M142.6,129.9
							c-0.1,0-0.1,0-0.2,0c-2.8,0.1-5,2.4-4.9,5.3c0.1,2.8,2.4,4.9,5.1,4.9c0.1,0,0.1,0,0.2,0c2.8-0.1,5-2.4,4.9-5.3
							C147.6,132.1,145.3,129.9,142.6,129.9L142.6,129.9z"/>
					</g>
					<g>
						<path d="M138.1,136.1c0.5,2,2.3,3.5,4.5,3.5c0.1,0,0.1,0,0.2,0c2.1-0.1,3.8-1.5,4.3-3.5c-1.2,0.9-2.7,1.4-4.2,1.4
							c-0.1,0-0.2,0-0.3,0C140.9,137.6,139.4,137.1,138.1,136.1z"/>
					</g>
					<g>
						<linearGradient id="SVGID_40_" gradientUnits="userSpaceOnUse" x1="138.2394" y1="133.401" x2="143.2625" y2="133.401">
							<stop  offset="0" style="stop-color:#FFFFFF"/>
							<stop  offset="1" style="stop-color:#FFFFFF;stop-opacity:0"/>
						</linearGradient>
						<path class="st88" d="M142.7,132.3c0.9-0.4,0.6-1.8-0.4-1.8c0,0,0,0,0,0h0l0,0c-0.7,0-1.4,0.2-2,0.5c-1.4,0.8-2.1,2.2-2.1,3.7
							c0,0.5,0.1,1,0.3,1.5c0.1,0.3,0.5,0.3,0.6,0C139.8,134.4,141.1,133.1,142.7,132.3z"/>
					</g>
					<linearGradient id="SVGID_41_" gradientUnits="userSpaceOnUse" x1="141.6762" y1="134.7551" x2="145.6794" y2="134.7551">
						<stop  offset="0" style="stop-color:#FFFFFF"/>
						<stop  offset="1" style="stop-color:#FFFFFF;stop-opacity:0"/>
					</linearGradient>
					<circle class="st89" cx="143.7" cy="134.8" r="2"/>
					<linearGradient id="SVGID_42_" gradientUnits="userSpaceOnUse" x1="141.6693" y1="134.7551" x2="144.4971" y2="134.7551">
						<stop  offset="0" style="stop-color:#FFFFFF"/>
						<stop  offset="1" style="stop-color:#FFFFFF;stop-opacity:0"/>
					</linearGradient>
					<circle class="st90" cx="143.1" cy="134.8" r="1.4"/>
					<linearGradient id="SVGID_43_" gradientUnits="userSpaceOnUse" x1="139.1665" y1="132.7104" x2="139.95" y2="132.7104">
						<stop  offset="0" style="stop-color:#FFFFFF"/>
						<stop  offset="1" style="stop-color:#FFFFFF;stop-opacity:0"/>
					</linearGradient>
					<circle class="st91" cx="139.6" cy="132.7" r="0.4"/>
					<circle class="st76" cx="143.7" cy="135" r="0.9"/>
					
						<linearGradient id="SVGID_44_" gradientUnits="userSpaceOnUse" x1="443.1484" y1="-869.7676" x2="446.2851" y2="-869.7676" gradientTransform="matrix(0.9753 0.2209 -0.2209 0.9753 -485.5086 883.0307)">
						<stop  offset="0" style="stop-color:#FFFFFF"/>
						<stop  offset="1" style="stop-color:#FFFFFF;stop-opacity:0"/>
					</linearGradient>
					<path class="st92" d="M142.1,131.9c0.2-0.1,0.2-0.3,0.1-0.4c-0.7-0.5-2.1-0.7-3.1,0.8c-0.5,0.8-0.5,1.5-0.3,2.1
						c0.1,0.3,0.5,0.3,0.6,0C139.9,133.3,140.9,132.4,142.1,131.9z"/>
					
						<linearGradient id="SVGID_45_" gradientUnits="userSpaceOnUse" x1="443.4026" y1="-870.1144" x2="445.7291" y2="-870.1144" gradientTransform="matrix(0.9753 0.2209 -0.2209 0.9753 -485.5086 883.0307)">
						<stop  offset="0" style="stop-color:#FFFFFF"/>
						<stop  offset="1" style="stop-color:#FFFFFF;stop-opacity:0"/>
					</linearGradient>
					<path class="st93" d="M141.5,131.8c0.2-0.1,0.2-0.3,0-0.4c-0.6-0.3-1.5-0.4-2.2,0.7c-0.4,0.6-0.4,1.2-0.2,1.6
						c0.1,0.2,0.3,0.2,0.4,0C139.9,132.9,140.7,132.2,141.5,131.8z"/>
				</g>
				<linearGradient id="SVGID_46_" gradientUnits="userSpaceOnUse" x1="98.1793" y1="163.647" x2="124.0241" y2="152.6312">
					<stop  offset="0" style="stop-color:#A7A7A6"/>
					<stop  offset="1" style="stop-color:#A7A7A6;stop-opacity:0"/>
				</linearGradient>
				<path class="st94" d="M96.5,159.2C96.5,159.2,96.5,159.2,96.5,159.2c-0.7,0.7-1.4,1.4-1.9,2c-0.9,1.3-1.2,3.1-0.6,4.5
					c0.3,0.7,0.8,1.3,1.4,1.7c0.3,0.2,0.6,0.4,1,0.5l0.5,0.2c0.2,0,0.3,0.1,0.5,0.1c1.3,0.1,2.5-0.2,3.5-0.7
					c0.2-0.1,0.5-0.3,0.7-0.5c0.2-0.2,0.3-0.4,0.7-0.8l0,0c0.7-0.8,0.5-2.1-0.4-2.7C99.9,162.4,98.1,160.9,96.5,159.2z"/>
				<linearGradient id="SVGID_47_" gradientUnits="userSpaceOnUse" x1="99.1435" y1="163.1376" x2="117.4787" y2="155.3226">
					<stop  offset="0" style="stop-color:#A7A7A6"/>
					<stop  offset="1" style="stop-color:#A7A7A6;stop-opacity:0"/>
				</linearGradient>
				<path class="st95" d="M101.9,163.6c-2-1.2-3.8-2.7-5.4-4.4c0,0,0,0,0,0c-0.6,0.7-1.3,1.3-1.8,1.9c0.3-0.3,0.6-0.6,0.9-0.9
					c0,0,0,0,0,0c1.5,1.7,3.3,3.1,5.4,4.4c0.9,0.5,1.1,1.7,0.5,2.5c0,0,0.1-0.1,0.1-0.1c0.2-0.2,0.3-0.4,0.7-0.8
					C103,165.5,102.8,164.2,101.9,163.6z"/>
				<linearGradient id="SVGID_48_" gradientUnits="userSpaceOnUse" x1="124.2402" y1="147.5248" x2="98.989" y2="165.6962">
					<stop  offset="5.618000e-03" style="stop-color:#005C97;stop-opacity:0"/>
					<stop  offset="0.1348" style="stop-color:#0B75BA;stop-opacity:0.4"/>
					<stop  offset="0.5231" style="stop-color:#1C9AD6"/>
					<stop  offset="0.5795" style="stop-color:#229CD7;stop-opacity:0.8816"/>
					<stop  offset="0.6551" style="stop-color:#33A3DA;stop-opacity:0.7231"/>
					<stop  offset="0.7415" style="stop-color:#4FAEDE;stop-opacity:0.542"/>
					<stop  offset="0.8359" style="stop-color:#76BDE5;stop-opacity:0.344"/>
					<stop  offset="0.9357" style="stop-color:#A7D1ED;stop-opacity:0.1348"/>
					<stop  offset="1" style="stop-color:#CBDFF3;stop-opacity:0"/>
				</linearGradient>
				<path class="st96" d="M108.4,160.4c5.9-4.6,13.3-7.4,20.7-7.6l-0.6-2.9c-0.1,0-0.2,0-0.2,0c0,0-0.1,0-0.1,0
					c-6.9-1.4-14.2-0.5-20.8,2.2c-3.3,1.4-6.3,3.3-9,5.5c-0.6,0.5-1.2,1.1-1.8,1.6c1.3,1.4,2.9,2.8,4.6,3.9c1.4,1,3.4,0.7,4.6-0.4
					C106.7,161.8,107.7,160.9,108.4,160.4z"/>
			</g>
			<g class="st97">
				<defs>
					<filter id="Adobe_OpacityMaskFilter" filterUnits="userSpaceOnUse" x="51.8" y="56.8" width="176" height="198">
						<feFlood  style="flood-color:white;flood-opacity:1" result="back"/>
						<feBlend  in="SourceGraphic" in2="back" mode="normal"/>
					</filter>
				</defs>
				<mask maskUnits="userSpaceOnUse" x="51.8" y="56.8" width="176" height="198" id="SVGID_49_">
					<g class="st98">
						
							<image style="overflow:visible;" width="180" height="202" xlink:href="AE44E9B977FBBDB9.jpg"  transform="matrix(1 0 0 1 49.7643 54.7704)">
						</image>
					</g>
				</mask>
				<g style="mask:url(#SVGID_49_);">
					
						<image style="overflow:visible;" width="176" height="198" xlink:href="AE44E9B977FBBDB8.png"  transform="matrix(1 0 0 1 51.7643 56.7704)">
					</image>
				</g>
			</g>
		</g>
	</g>
</g>
</svg>
