<?xml version="1.0" encoding="UTF-8"?>
<!DOCTYPE svg PUBLIC "-//W3C//DTD SVG 1.1//EN" "http://www.w3.org/Graphics/SVG/1.1/DTD/svg11.dtd">
<!-- Creator: CorelDRAW X8 -->
<svg xmlns="http://www.w3.org/2000/svg" xml:space="preserve" width="177.314mm" height="52.0865mm" version="1.1" style="shape-rendering:geometricPrecision; text-rendering:geometricPrecision; image-rendering:optimizeQuality; fill-rule:evenodd; clip-rule:evenodd"
viewBox="0 0 3064 900"
 xmlns:xlink="http://www.w3.org/1999/xlink">
 <defs>
  <style type="text/css">
   <![CDATA[
    .fil1 {fill:#FEFEFE;fill-rule:nonzero}
    .fil0 {fill:#2FD3AE;fill-rule:nonzero}
   ]]>
  </style>
 </defs>
 <g id="Capa_x0020_1">
  <metadata id="CorelCorpID_0Corel-Layer"/>
  <g id="_2452430505952">
   <path class="fil0" d="M1103 385l2 0 65 -347 125 0 -123 535 -116 0 -90 -330 -2 0 -90 330 -116 0 -123 -535 126 0 64 347 2 0 91 -347 94 0 91 347zm362 188l-124 0 0 -398 124 0 0 398zm0 -490l-124 0 0 -83 124 0 0 83zm219 -6l0 98 63 0 0 86 -63 0 0 182c0,15 3,25 9,31 5,6 13,9 23,9 6,0 11,0 15,0 4,-1 9,-2 15,-3l8 92c-12,3 -24,5 -34,6 -10,2 -22,2 -35,2 -41,0 -72,-10 -93,-32 -22,-22 -32,-57 -32,-104l0 -183 -56 0 0 -86 56 0 0 -98 124 0z"/>
   <path class="fil1" d="M1843 587l0 -535 196 0c62,0 115,20 157,61 43,41 64,94 64,158l0 96c0,65 -21,117 -64,158 -42,41 -95,62 -157,62l-196 0zm124 -440l0 344 72 0c28,0 51,-11 69,-34 18,-23 28,-53 28,-90l0 -97c0,-36 -10,-65 -28,-88 -18,-23 -41,-35 -69,-35l-72 0zm536 447c-60,0 -107,-18 -142,-54 -34,-37 -51,-83 -51,-139l0 -14c0,-61 16,-110 49,-148 32,-38 78,-57 139,-57 54,0 95,16 125,48 29,32 44,76 44,132l0 65 -227 0 -1 2c2,21 9,38 23,51 13,12 33,19 58,19 24,0 43,-2 59,-6 16,-4 34,-10 54,-19l30 76c-17,12 -40,23 -69,31 -29,9 -59,13 -91,13zm-5 -317c-20,0 -34,7 -44,19 -9,13 -14,30 -16,52l1 1 107 0 0 -9c0,-21 -4,-36 -11,-47 -7,-10 -19,-16 -37,-16zm366 146l7 42 2 0 8 -42 53 -234 130 0 -129 398 -126 0 -129 -398 130 0 54 234z"/>
   <g>
    <polygon class="fil1" points="216,261 216,258 0,165 0,49 326,211 326,310 0,473 0,356 "/>
    <polygon class="fil1" points="323,573 323,493 567,493 567,573 "/>
   </g>
   <path class="fil1" d="M700 783c0,-21 5,-38 14,-51 9,-13 22,-19 38,-19 8,0 14,1 20,4 6,3 11,7 16,12l0 -72 24 0 0 190 -19 0 -3 -17c-5,6 -10,11 -16,14 -7,4 -14,5 -22,5 -16,0 -29,-6 -38,-17 -9,-12 -14,-27 -14,-46l0 -3zm24 3c0,13 3,24 9,32 5,8 13,12 25,12 7,0 13,-2 18,-5 5,-3 9,-8 12,-14l0 -61c-3,-6 -7,-10 -12,-13 -5,-3 -11,-5 -18,-5 -11,0 -20,5 -25,14 -6,10 -9,22 -9,37l0 3zm178 63c-19,0 -34,-6 -44,-18 -11,-12 -16,-28 -16,-48l0 -5c0,-19 5,-34 16,-47 11,-12 24,-18 40,-18 18,0 31,5 40,16 8,11 13,26 13,44l0 12 -84 0 -1 1c0,13 3,24 9,32 6,8 15,12 27,12 8,0 15,-1 21,-3 6,-2 12,-5 16,-9l9 15c-4,5 -11,8 -18,12 -8,3 -17,4 -28,4zm-4 -117c-8,0 -15,3 -21,9 -5,7 -8,15 -10,25l1 1 59 0 0 -2c0,-10 -2,-18 -7,-24 -5,-6 -12,-9 -22,-9zm156 79c0,-5 -2,-9 -6,-13 -4,-3 -11,-6 -23,-8 -15,-4 -27,-8 -35,-14 -9,-6 -13,-14 -13,-24 0,-11 5,-20 14,-28 9,-7 21,-11 35,-11 15,0 27,4 37,12 9,8 13,17 13,28l0 1 -23 0c0,-6 -3,-11 -8,-15 -5,-5 -11,-7 -19,-7 -8,0 -14,1 -19,5 -4,4 -6,9 -6,14 0,5 2,9 6,12 3,3 11,5 22,8 16,3 28,8 37,14 8,6 12,15 12,25 0,11 -5,21 -14,28 -9,8 -22,11 -37,11 -17,0 -30,-4 -40,-13 -9,-8 -14,-18 -13,-29l0 -1 23 0c0,8 3,15 9,19 6,4 13,5 21,5 8,0 15,-1 20,-5 5,-4 7,-8 7,-14zm135 36c-1,-4 -2,-8 -2,-11 -1,-3 -1,-6 -1,-9 -4,6 -10,12 -17,16 -7,4 -15,6 -24,6 -13,0 -24,-3 -31,-10 -7,-7 -11,-17 -11,-29 0,-13 6,-23 16,-30 10,-7 24,-10 41,-10l26 0 0 -13c0,-8 -2,-14 -7,-19 -5,-4 -11,-6 -20,-6 -8,0 -14,1 -19,5 -5,4 -7,9 -7,14l-23 1 0 -1c0,-10 4,-18 14,-26 9,-8 21,-12 36,-12 15,0 27,4 36,11 10,8 14,19 14,33l0 63c0,5 0,9 1,14 0,4 1,8 2,13l-24 0zm-40 -18c9,0 17,-2 24,-7 6,-4 11,-9 13,-15l0 -21 -27 0c-9,0 -17,2 -23,7 -6,5 -9,11 -9,17 0,6 2,11 6,14 3,3 9,5 16,5zm158 -93l-12 0c-7,0 -12,1 -16,4 -5,3 -8,7 -10,13l0 94 -24 0 0 -132 21 0 3 19c3,-6 8,-12 13,-16 6,-3 12,-5 19,-5 2,0 4,0 5,0 2,0 3,1 4,1l-3 22zm87 0l-12 0c-6,0 -12,1 -16,4 -4,3 -8,7 -10,13l0 94 -24 0 0 -132 21 0 3 19c3,-6 8,-12 14,-16 5,-3 11,-5 18,-5 2,0 4,0 6,0 1,0 2,1 4,1l-4 22zm17 44c0,-20 5,-36 16,-48 10,-13 25,-19 43,-19 18,0 33,6 43,19 11,12 16,28 16,48l0 2c0,20 -5,36 -16,48 -10,13 -25,19 -43,19 -18,0 -32,-6 -43,-19 -11,-12 -16,-28 -16,-48l0 -2zm24 2c0,14 3,26 9,35 6,9 15,13 26,13 12,0 20,-4 26,-13 6,-9 9,-21 9,-35l0 -2c0,-14 -3,-26 -9,-35 -6,-9 -15,-13 -26,-13 -12,0 -20,4 -26,13 -6,9 -9,21 -9,35l0 2zm149 65l-24 0 0 -190 24 0 0 190zm63 0l-24 0 0 -190 24 0 0 190zm118 0c-1,-4 -2,-8 -2,-11 -1,-3 -1,-6 -1,-9 -5,6 -10,12 -18,16 -7,4 -14,6 -23,6 -13,0 -24,-3 -31,-10 -7,-7 -11,-17 -11,-29 0,-13 5,-23 15,-30 11,-7 24,-10 42,-10l26 0 0 -13c0,-8 -2,-14 -7,-19 -5,-4 -12,-6 -20,-6 -8,0 -14,1 -19,5 -5,4 -7,9 -7,14l-23 1 0 -1c-1,-10 4,-18 13,-26 10,-8 22,-12 37,-12 15,0 27,4 36,11 9,8 14,19 14,33l0 63c0,5 0,9 1,14 0,4 1,8 2,13l-24 0zm-40 -18c8,0 16,-2 23,-7 7,-4 12,-9 14,-15l0 -21 -27 0c-10,0 -17,2 -23,7 -6,5 -9,11 -9,17 0,6 2,11 6,14 3,3 9,5 16,5zm117 -114l2 20c4,-7 10,-13 16,-16 7,-4 14,-6 23,-6 14,0 25,4 33,12 7,8 11,21 11,39l0 83 -24 0 0 -83c0,-11 -2,-20 -6,-25 -5,-4 -12,-7 -21,-7 -8,0 -14,2 -19,5 -5,3 -9,7 -12,12l0 98 -24 0 0 -132 21 0zm115 68c0,-21 4,-38 13,-51 9,-13 22,-19 38,-19 8,0 15,1 21,4 6,3 11,7 15,12l0 -72 24 0 0 190 -19 0 -3 -17c-4,6 -10,11 -16,14 -6,4 -14,5 -22,5 -16,0 -29,-6 -38,-17 -9,-12 -13,-27 -13,-46l0 -3zm24 3c0,13 2,24 8,32 5,8 14,12 25,12 7,0 13,-2 18,-5 5,-3 9,-8 12,-14l0 -61c-3,-6 -7,-10 -12,-13 -5,-3 -11,-5 -18,-5 -11,0 -20,5 -25,14 -6,10 -8,22 -8,37l0 3zm117 -6c0,-20 5,-36 16,-48 10,-13 25,-19 43,-19 18,0 32,6 43,19 11,12 16,28 16,48l0 2c0,20 -5,36 -16,48 -11,13 -25,19 -43,19 -18,0 -33,-6 -43,-19 -11,-12 -16,-28 -16,-48l0 -2zm24 2c0,14 3,26 9,35 6,9 14,13 26,13 11,0 20,-4 26,-13 6,-9 9,-21 9,-35l0 -2c0,-14 -3,-26 -9,-35 -6,-9 -15,-13 -26,-13 -12,0 -20,4 -26,13 -6,9 -9,21 -9,35l0 2z"/>
   <path class="fil0" d="M2286 847l-24 0 0 -132 24 0 0 132zm0 -165l-24 0 0 -25 24 0 0 25zm58 33l2 20c4,-7 10,-12 16,-16 7,-4 15,-6 23,-6 14,0 25,4 33,12 8,9 12,22 12,39l0 83 -24 0 0 -83c0,-11 -3,-19 -7,-24 -5,-5 -12,-8 -21,-8 -8,0 -14,2 -19,5 -5,3 -9,7 -12,12l0 98 -24 0 0 -132 21 0zm116 69c0,-22 5,-39 14,-52 9,-13 21,-19 38,-19 8,0 15,2 22,5 6,3 11,8 15,15l3 -18 19 0 0 133c0,17 -4,29 -14,39 -10,9 -24,13 -43,13 -6,0 -13,-1 -20,-3 -8,-1 -14,-4 -20,-7l4 -18c5,2 10,4 17,6 6,1 13,2 19,2 12,0 20,-3 26,-8 5,-5 7,-13 7,-24l0 -15c-4,5 -9,9 -15,12 -6,3 -13,4 -21,5 -16,-1 -28,-6 -37,-18 -9,-12 -14,-27 -14,-46l0 -2zm24 2c0,13 3,24 8,32 6,8 14,12 25,12 8,0 14,-2 18,-5 5,-3 9,-8 12,-14l0 -60c-3,-6 -7,-10 -12,-14 -4,-3 -10,-5 -17,-5 -12,0 -20,5 -26,15 -5,9 -8,21 -8,37l0 2zm176 64c-19,-1 -33,-7 -44,-19 -10,-12 -16,-28 -16,-47l0 -6c0,-18 6,-34 17,-46 10,-13 24,-19 40,-19 17,0 30,5 39,16 9,11 13,26 13,44l0 13 -84 0 0 0c0,13 3,24 9,32 5,9 14,13 26,13 8,0 15,-1 22,-4 6,-2 11,-5 15,-9l10 15c-5,5 -11,9 -19,12 -8,3 -17,4 -28,5zm-3 -118c-9,0 -16,3 -21,9 -6,7 -9,15 -10,25l0 1 59 0 0 -2c0,-10 -2,-18 -7,-24 -4,-6 -12,-9 -21,-9zm101 -17l1 20c5,-7 10,-12 17,-16 6,-4 14,-6 22,-6 14,0 25,4 33,12 8,9 12,22 12,39l0 83 -24 0 0 -83c0,-11 -2,-19 -7,-24 -5,-5 -11,-8 -21,-8 -7,0 -14,2 -19,5 -5,3 -9,7 -12,12l0 98 -24 0 0 -132 22 0zm146 132l-24 0 0 -132 24 0 0 132zm0 -165l-24 0 0 -25 24 0 0 25zm31 98c0,-19 5,-36 16,-48 10,-13 24,-19 43,-19 18,0 32,6 43,19 10,12 16,28 16,48l0 3c0,19 -6,35 -16,48 -11,12 -25,18 -43,19 -18,-1 -33,-7 -43,-19 -11,-13 -16,-29 -16,-48l0 -3zm24 3c0,14 3,25 9,34 5,9 14,14 26,14 11,0 20,-5 26,-14 6,-9 9,-20 9,-34l0 -3c0,-14 -3,-25 -9,-34 -6,-10 -15,-14 -26,-14 -12,0 -21,4 -26,14 -6,9 -9,20 -9,34l0 3z"/>
  </g>
 </g>
</svg>
