<svg xmlns="http://www.w3.org/2000/svg" viewBox="0 0 509 61.23"><defs><style>.cls-1{fill:#323232;}</style></defs><title>logo oscuro</title><g id="Capa_2" data-name="Capa 2"><g id="Capa_1-2" data-name="Capa 1"><polygon class="cls-1" points="111.07 58.98 142.03 11.15 116.85 11.15 116.85 1.43 160.23 1.43 129.34 49.27 157.75 49.27 157.75 58.98 111.07 58.98"/><polygon class="cls-1" points="93.51 58.98 74.7 22.94 55.96 58.98 45.23 58.98 74.78 0.02 104.23 58.98 93.51 58.98"/><path class="cls-1" d="M294.41,61.23c-17,0-30.33-13.14-30.33-29.91C264.08,14.31,277.22,1,294,1c17,0,30.34,13.14,30.34,29.91C324.33,47.9,311.19,61.23,294.41,61.23ZM294,10.7a20.17,20.17,0,0,0-20.2,20.55,20.41,20.41,0,0,0,40.82-.15A20.29,20.29,0,0,0,294,10.7Z"/><polygon class="cls-1" points="333.29 58.99 333.29 1.44 343 1.44 343 49.27 370.26 49.27 370.26 58.99 333.29 58.99"/><rect class="cls-1" x="379.22" y="1.44" width="9.71" height="57.55"/><polygon class="cls-1" points="498.27 58.99 479.47 22.94 460.73 58.99 450 58.99 479.54 0.02 509 58.99 498.27 58.99"/><polygon class="cls-1" points="208.34 11.58 198.63 0.02 198.63 58.99 208.34 58.99 208.34 48.64 208.34 26.67 208.34 11.58"/><polygon class="cls-1" points="226.9 33.68 217.31 22.25 217.31 37.35 226.91 48.79 245.4 26.69 245.4 58.99 255.11 58.99 255.11 0 226.9 33.68"/><polygon class="cls-1" points="435.31 1.5 435.31 39.23 397.9 1.5 397.9 59.05 407.62 59.05 407.62 26.55 439.27 59.04 445.02 59.05 445.02 1.5 435.31 1.5"/><path class="cls-1" d="M40.47,7.58A19,19,0,0,0,26.2,1.43H0v9.72H26.2a9.59,9.59,0,0,1,9.69,9.69c0,5-3.57,10.12-9.55,10.12H0V59H9.71V40.67h16.7a19.32,19.32,0,0,0,19.2-19.83A19.94,19.94,0,0,0,40.47,7.58Z"/></g></g></svg>