<svg xmlns="http://www.w3.org/2000/svg" viewBox="0 0 357.57 113.64"><defs><style>.cls-1{fill:#1d1d1b;fill-rule:evenodd;}</style></defs><title>logo manisur</title><g id="Capa_2" data-name="Capa 2"><g id="Capa_1-2" data-name="Capa 1"><path class="cls-1" d="M45.93,94.09q.8,2.84,1.59,5.7c101.07-1,192.62,2.38,274.72,13.79,3.39.37,5.6-.86,4-3.42-1.75-2.8-3-5.37-6.74-7.82-2.59-2.34-7.33-3.72-11.44-4C222.14,91.87,134.62,91.35,45.93,94.09Z"/><path class="cls-1" d="M45.93,94.09q.8,2.84,1.59,5.7c101.07-1,192.62,2.38,274.72,13.79,3.39.37,5.6-.86,4-3.42-1.75-2.8-3-5.37-6.74-7.82-2.59-2.34-7.33-3.72-11.44-4C222.14,91.87,134.62,91.35,45.93,94.09Z"/><path class="cls-1" d="M134.56,39.45Q116.41,47,111.07,51.15t-5.24,9.16a3.65,3.65,0,0,0,.6,2,1.64,1.64,0,0,0,1.41.79c1.85,0,5.41-2.29,10.68-6.81a131.86,131.86,0,0,0,16-16.89ZM313.92,51.78l4.83-4.45a6.33,6.33,0,0,1-2.11-1.67,3.39,3.39,0,0,1-.7-2c-.06-2.77,1.69-6,5.23-9.58s6.51-5.42,8.88-5.46a1.46,1.46,0,0,1,1,.37,1.31,1.31,0,0,1,.46.94,4.05,4.05,0,0,1-.3,1.14c-.22.52-.55,1.17-1,2l9.47-.71c.22,0,.51,0,.89-.07q2.17-.2,3.06-.21a5.48,5.48,0,0,1,4.47,1.65,8.1,8.1,0,0,1,1.53,5.21c0,.84-.93,2.12-2.82,3.79-1.19,1-2.08,1.78-2.7,2.4A34,34,0,0,0,339,51.83c-1.34,2.32-2,4.15-2,5.52a3.26,3.26,0,0,0,.8,2.33,2.94,2.94,0,0,0,2.28.76c1.1,0,2.92-.9,5.41-2.69s6.5-5,12-9.87l.09,4.63a145.6,145.6,0,0,1-14.93,14q-5.75,4.39-9.16,4.45a6.71,6.71,0,0,1-5.2-2.27A8.45,8.45,0,0,1,326,62.87,17,17,0,0,1,328.5,54a53.26,53.26,0,0,1,8.81-10.66c-2.66.63-4.88,1.11-6.61,1.42s-3.4.59-5,.82l-1.48,1.52c-2.9,3-5.34,5.32-7.27,7.14q-9.64,10.31-14.52,14.06c-3.43,2.6-6.33,3.92-8.75,4a6.91,6.91,0,0,1-5-1.72,6.4,6.4,0,0,1-2-4.8,16.68,16.68,0,0,1,.7-4.57,41.36,41.36,0,0,1,2.07-5.67,96.48,96.48,0,0,1-10.05,10.93Q275.38,70,273,70.05c-2.11,0-4.12-1.16-6-3.61a14.38,14.38,0,0,1-2.9-8.72,89.21,89.21,0,0,1-12.65,10.16c-4.86,3.1-9.08,4.68-12.7,4.73A16.81,16.81,0,0,1,228,68.82c-3.21-2.42-4.94-5-5.16-7.78A62.14,62.14,0,0,1,215.22,68c-3.71,2.71-7.09,4.1-10.17,4.15a8.68,8.68,0,0,1-7.48-3.54,16.17,16.17,0,0,1-2.82-8.82Q186.52,68.09,183,70.62c-2.92,2.11-5.53,3.19-7.79,3.23a5.42,5.42,0,0,1-4.39-1.91,7.8,7.8,0,0,1-1.77-5.13A17.56,17.56,0,0,1,171.37,59a76.64,76.64,0,0,1,7.37-11.32A151.35,151.35,0,0,0,163.85,63q-7.36,8.64-9.1,8.67c-1.77,0-3.26-1.19-4.44-3.65a21.43,21.43,0,0,1-1.77-7.35A123.19,123.19,0,0,1,137.31,71c-3,2.27-5.61,3.42-7.76,3.45a6,6,0,0,1-4.46-1.74,6.23,6.23,0,0,1-1.87-4.48c0-1.64.8-5.07,2.5-10.23l0-.19a132.65,132.65,0,0,1-12.2,11.09c-3.21,2.46-5.63,3.68-7.27,3.71s-3.42-1.7-5.79-5.17A23,23,0,0,1,97.66,62a78.76,78.76,0,0,1-15.5,13c-5.54,3.47-9.92,5.25-13.11,5.29a7,7,0,0,1-6.37-3.54q-2.32-3.62-2.45-10.3t6.43-17.64A144.4,144.4,0,0,1,84.9,25.16,198.19,198.19,0,0,0,67.83,40.32Q59.25,48.89,48.37,61.8l-1.46,1.71Q35.27,77.27,33.23,77.3c-.75,0-1.57-1.09-2.45-3.3a18.85,18.85,0,0,1-1.38-6.76q-.07-4.3,11.66-20.64A182.58,182.58,0,0,0,59.28,16,94.2,94.2,0,0,0,43,30.3,223.15,223.15,0,0,0,24.88,53.13q-2.43,3.42-6.28,9.09-8.39,12.27-11,12.31c-1.2,0-2.4-1.06-3.61-3.19a14,14,0,0,1-1.89-6.8Q2,61.47,8.7,52.72q4-5.36,6.43-8.85A201.07,201.07,0,0,0,26.48,25.4c2.76-5.25,4.13-8.83,4.09-10.71a1.26,1.26,0,0,0-.53-.94,1.84,1.84,0,0,0-1.21-.42,13.81,13.81,0,0,0-4.22,1.58c-2.13,1.05-5.21,2.66-9.16,4.85-1,.57-2.36,1.36-4.09,2.33-4.79,2.73-7.79,4.09-9,4.11a2.38,2.38,0,0,1-1.76-.5A2.22,2.22,0,0,1,0,24a25,25,0,0,1,1.14-7.44,20.32,20.32,0,0,1,3-6.51A21.71,21.71,0,0,1,9,5.37c2.1-1.52,3.39-2.27,3.91-2.28a.59.59,0,0,1,.43.21.59.59,0,0,1,.19.4,1.84,1.84,0,0,1-.44.78A10.9,10.9,0,0,1,12,5.63L8.15,9.24a160.73,160.73,0,0,1,15-6.64Q30,0,32.48,0T37.4,3.58a13.42,13.42,0,0,1,2.37,6.94q.09,4.79-3.35,12.34a106.38,106.38,0,0,1-9.73,16.61,188.11,188.11,0,0,1,23.9-25.7Q62.34,3.54,66.25,3.49c1,0,2.3.75,3.73,2.34A8,8,0,0,1,72.2,11.2q.06,2.91-4.36,11.35A229.11,229.11,0,0,1,55.44,42.9Q71.3,26.13,83.51,15.62C91.67,8.6,96.86,5.1,99.09,5.06c1.16,0,2.42,1.08,3.78,3.32A12.26,12.26,0,0,1,105,14.1c0,1.45-1.85,4.26-5.6,8.48-2.52,2.89-4.54,5.27-6.11,7.2A130.31,130.31,0,0,0,79,50.44q-4.71,9-4.61,15.15a5.84,5.84,0,0,0,.67,3.22,2.77,2.77,0,0,0,2.35.78c1.88,0,4.74-1.21,8.66-3.57a73.3,73.3,0,0,0,10.77-8.09,1.27,1.27,0,0,1,0-.2c0-2.19.91-4.69,2.82-7.47a38,38,0,0,1,8.1-8.28,58.44,58.44,0,0,1,8.37-5.51A75.11,75.11,0,0,1,126,32.12a69.6,69.6,0,0,1,7.17-2.27,25.61,25.61,0,0,1,4.76-.9,5.27,5.27,0,0,1,3.69,1.82,5.33,5.33,0,0,1,1.88,3.49,1.18,1.18,0,0,1-.4.91,7.29,7.29,0,0,1-1.62,1l-2.06,1.17,2,3.68a6.09,6.09,0,0,1,.56,1.12,2.71,2.71,0,0,1,.14.86c0,.8-1.4,3.15-4.25,7.08s-4.24,7-4.21,9.13a2.21,2.21,0,0,0,.9,1.86,3.85,3.85,0,0,0,2.46.61q2.38,0,6-2.32a58.69,58.69,0,0,0,5.59-4.23,55.92,55.92,0,0,1,8.07-13.29c2.7-3.09,5.3-4.67,7.79-4.71a10.47,10.47,0,0,1,3.94.66c1.15.46,1.73,1,1.75,1.57s-.81,2.07-2.42,4.12-4,4.83-7.24,8.26a11.28,11.28,0,0,0-2.11,3.13,7.06,7.06,0,0,0-.72,3.13v.32a156.26,156.26,0,0,1,19.06-18c6.06-4.72,10.21-7.08,12.5-7.12.83,0,1.66.68,2.47,2A8.88,8.88,0,0,1,193,39.68c0,1.76-1.15,3.86-3.56,6.32-1.29,1.3-2.22,2.31-2.85,3.08a43.75,43.75,0,0,0-4.23,6.47c-1.12,2.13-1.66,3.6-1.64,4.43a2.16,2.16,0,0,0,.61,1.61,2.25,2.25,0,0,0,1.71.57c.93,0,2.68-.94,5.2-2.79,1.73-1.27,4-3.08,6.79-5.46a21.61,21.61,0,0,1,2.06-6.21,40,40,0,0,1,8.43-10.43,24.76,24.76,0,0,1,5.28-4.06,11,11,0,0,1,4.78-1.2,4.6,4.6,0,0,1,2.85.71,2.67,2.67,0,0,1,1,2.21c0,2-1.25,4.65-3.81,7.92a68.93,68.93,0,0,1-10.79,10.62,17,17,0,0,0-.44,2,8.45,8.45,0,0,0-.1,1.54,4.7,4.7,0,0,0,1.61,3.63,5.64,5.64,0,0,0,4,1.32c1.79,0,4.29-1.09,7.57-3.17a75.39,75.39,0,0,0,9.23-7.15v-.18c4.65-4.43,8.3-8,11-10.73s4.71-4.81,6-6.35c.57-2.56,1.43-4.32,2.61-5.31a8.63,8.63,0,0,1,5.47-1.56,2.73,2.73,0,0,1,1.61.35,1.65,1.65,0,0,1,.48,1.27,6.67,6.67,0,0,1-.08,1.1c-.06.42-.1.69-.1.79a34.87,34.87,0,0,0,1.19,4.72,29.45,29.45,0,0,1,1.22,7.39,19.64,19.64,0,0,1-4.34,12.36,20.26,20.26,0,0,1-10.69,7.77c.79.15,1.47.28,2,.37a14.21,14.21,0,0,0,1.49.09c2.49,0,5.67-1.25,9.52-3.63a86.63,86.63,0,0,0,10.64-8,21.36,21.36,0,0,1,1.45-3.67,45.24,45.24,0,0,1,7.63-10.11A25.82,25.82,0,0,1,279,33.81a8.54,8.54,0,0,1,4.13-1.07,13.58,13.58,0,0,1,4.49.59c1.24.43,1.84.94,1.85,1.52,0,1-.84,2.53-2.61,4.54s-5.87,6-12.32,11.82A35.21,35.21,0,0,0,273,55a8.07,8.07,0,0,0-.48,2.61,2.11,2.11,0,0,0,.16,1,.47.47,0,0,0,.48.27c1.27,0,3.85-1.55,7.77-4.61a142.75,142.75,0,0,0,13.13-11.9l.12,0Q307.08,29.1,309.7,29.07a1.76,1.76,0,0,1,1.64,1.09,7.73,7.73,0,0,1,.61,3.29A7.93,7.93,0,0,1,309.83,39l-.17.16a68.38,68.38,0,0,0-8.56,11.17q-3.25,5.37-3.19,8a2.13,2.13,0,0,0,.86,1.7,2.78,2.78,0,0,0,1.93.67q1.59,0,4.76-2.18,2.42-1.66,8.46-6.71Zm-85.75,3.41.35,0a3.7,3.7,0,0,1,.52-.06,7.24,7.24,0,0,1,4.36,1.37,17.39,17.39,0,0,1,4.3,4.71,18.47,18.47,0,0,0,5.77-5.33,11.51,11.51,0,0,0,1.55-6.4,21.22,21.22,0,0,0-.41-3.61,43.18,43.18,0,0,0-1.21-4.75c-2.4,2.45-6.33,6.08-11.78,10.93-1.24,1.08-2.25,2-3,2.65v0l-.43.51ZM216.62,26a3.32,3.32,0,0,0,1.13,2.54,4,4,0,0,0,2.78.94c2,0,4-1.17,6-3.41s2.94-4.34,2.89-6.29a3.55,3.55,0,0,0-.95-2.58,3.49,3.49,0,0,0-2.64-.85,8.9,8.9,0,0,0-6.3,3.14A9,9,0,0,0,216.62,26Z"/></g></g></svg>