<svg xmlns="http://www.w3.org/2000/svg" viewBox="0 0 384.63 113.96"><defs><style>.cls-1{fill:#482825;}</style></defs><title>Reina Mora oscuro logo</title><g id="Capa_2" data-name="Capa 2"><g id="Capa_1-2" data-name="Capa 1"><g id="Capa_1-2-2" data-name="Capa 1-2"><path class="cls-1" d="M54.86,46.17a1.69,1.69,0,0,0-1,.46,1.81,1.81,0,0,1-.29.19c-.08,0-.2-.1-.32-.19a1.75,1.75,0,0,0-1-.46h-.1a4,4,0,0,0-2.33,1.09,5.13,5.13,0,0,1-1.2.8h0a.19.19,0,0,0-.1.26,4.68,4.68,0,0,0,1.9,2.39,5.76,5.76,0,0,0,3.2.94,5.32,5.32,0,0,0,5.1-3.33h0a.21.21,0,0,0-.13-.27,4.17,4.17,0,0,1-1.22-.76l-.3-.24A3.71,3.71,0,0,0,55,46.17ZM53.6,50.25a4.49,4.49,0,0,1-2.6-.83h5.2A4.49,4.49,0,0,1,53.6,50.25Z"/><path class="cls-1" d="M57.87,34.54a.22.22,0,0,0,.2-.14l.1-.31c.27-.91.41-1.4,1.41-1.6a2.1,2.1,0,0,0,.35,2.15,2.2,2.2,0,0,1-1.12-.34.27.27,0,0,1-.08-.07.47.47,0,0,0-.15-.06.24.24,0,0,0-.12,0,.2.2,0,0,0-.06.26,1.56,1.56,0,0,0,.4.55,3.94,3.94,0,0,0,2.54.68h.28a16.65,16.65,0,0,0,2-.13,2.77,2.77,0,0,0,1.2-.47,2.2,2.2,0,0,0,.52-.69.2.2,0,0,0,0-.26H65l-.07.07-.13.12a5.77,5.77,0,0,1-1.79.32,2.13,2.13,0,0,0,.57-1.5,2.57,2.57,0,0,0-.15-.78,6.86,6.86,0,0,1,.9.09,3.45,3.45,0,0,1,.87.3,1.57,1.57,0,0,1,.69.77.2.2,0,0,0,.15.1.21.21,0,0,0,.24-.17,1.88,1.88,0,0,0-.08-.78,2,2,0,0,0-.29-.61,2.12,2.12,0,0,0-.38-.51,2.31,2.31,0,0,0,.2-.24,3.28,3.28,0,0,0,.39-.71,3.92,3.92,0,0,0,.22-.74.23.23,0,0,0-.1-.21h-.11a.21.21,0,0,0-.13.05l-.55.45a1.36,1.36,0,0,0,.06-.29.23.23,0,0,0-.1-.21h-.1a.21.21,0,0,0-.13.05l-.9.74-.09.06a1.31,1.31,0,0,0,.07-.44.21.21,0,0,0-.11-.2h-.09a.19.19,0,0,0-.13.05l-.81.63a1.75,1.75,0,0,1-.76.34h-.29c-2.55,0-4,.26-4.4.75v0a5.5,5.5,0,0,0,0,2.82A.21.21,0,0,0,57.87,34.54Z"/><path class="cls-1" d="M50.73,42.75a.22.22,0,0,0,0,.22,2.53,2.53,0,0,0,.58.79,2.88,2.88,0,0,0,.7.5,3.51,3.51,0,0,0,1.56.37,3.28,3.28,0,0,0,2.26-.86,2.69,2.69,0,0,0,.58-.8.22.22,0,0,0,0-.22.33.33,0,0,0-.16-.07,8.8,8.8,0,0,1-2.65.38V43A8.76,8.76,0,0,1,51,42.68h-.07A.26.26,0,0,0,50.73,42.75Z"/><path class="cls-1" d="M48.76,34.2a.24.24,0,0,0-.12,0,.2.2,0,0,0-.15.06l-.07.07a2.26,2.26,0,0,1-1.13.34,2.13,2.13,0,0,0,.51-1.3,2.06,2.06,0,0,0-.15-.85c1,.2,1.13.68,1.4,1.58l.1.33a.22.22,0,0,0,.2.14.21.21,0,0,0,.2-.15,5.56,5.56,0,0,0,0-2.69c-.43-.53-1.9-.78-4.38-.78h-.34a1.64,1.64,0,0,1-.76-.34l-.8-.63a.29.29,0,0,0-.13-.05H43a.21.21,0,0,0-.11.19,1.76,1.76,0,0,0,.07.45l-.08-.06L42,29.77a.29.29,0,0,0-.13-.05h-.11a.22.22,0,0,0-.09.22,1.27,1.27,0,0,0,.06.28l-.55-.45a.29.29,0,0,0-.13-.05H41a.19.19,0,0,0-.1.21,3.5,3.5,0,0,0,.6,1.45l.2.24a2.17,2.17,0,0,0-.38.52,2.07,2.07,0,0,0-.29.62,1.78,1.78,0,0,0-.08.76.2.2,0,0,0,.17.18.22.22,0,0,0,.22-.12,1.55,1.55,0,0,1,.67-.76,3.46,3.46,0,0,1,.89-.3,6.54,6.54,0,0,1,.89-.09,2.57,2.57,0,0,0-.15.78,2.07,2.07,0,0,0,.57,1.5,5.05,5.05,0,0,1-1.76-.34l-.19-.17a.47.47,0,0,0-.15-.06H42a.2.2,0,0,0-.06.26,2.09,2.09,0,0,0,.52.66,2.7,2.7,0,0,0,1.23.42,16.65,16.65,0,0,0,2,.13h.28a4,4,0,0,0,2.5-.59,1.88,1.88,0,0,0,.41-.56A.22.22,0,0,0,48.76,34.2Z"/><path class="cls-1" d="M104,41A55.32,55.32,0,0,0,85.11,16.7a51.14,51.14,0,0,0-6.79-4.15c-1.36-.69-4.51-1.34-5.92-2.28.56.25.19-1.18-.36-1.68a3.91,3.91,0,0,0-1.17-.7,1.51,1.51,0,0,0-.63-1.44A7.61,7.61,0,0,0,67.52,5.1a1.47,1.47,0,0,0-.28-1.26c-2-2.71-5.53-3.44-8.7-3.67-2.32-.17-7.42-.7-8.91,1.64l-.41-.19-.92-.34-.36-.11A2.42,2.42,0,0,0,47,1a3.61,3.61,0,0,0-.62.13,2.09,2.09,0,0,0-1,.29,2,2,0,0,0-.89,1.36,7.14,7.14,0,0,0-4.6,1.43,2.21,2.21,0,0,0-.88,1.6,6.34,6.34,0,0,0-4.37,2.63,1.63,1.63,0,0,0-.22,1.47c-.75.12-1.14.18-1.24.91,0,0-3.36,1.43-4.45,2A52.1,52.1,0,0,0,23,16.35a54,54,0,0,0-9.32,8.28A53.85,53.85,0,0,0,10.88,93c21.1,27.84,64.3,28.09,85.6.32A54.42,54.42,0,0,0,104,41ZM67.14,6.63c.37.24.76.46,1,.64s.49.36.72.56a8.56,8.56,0,0,0-2.25-.33,3.83,3.83,0,0,0-2.49.74c-.43.06-.85.15-1.24.23l-1,.24-1,.26-1.05.27c-1.31.34-2.66.74-4.13,1.21-2.71.88-5.3,1.84-8.09,3a85.64,85.64,0,0,0-7.79,3.7,51.63,51.63,0,0,0-6.35,4v-3.3a.38.38,0,0,1,0-.15,1.65,1.65,0,0,1,.06-.32,2.29,2.29,0,0,1,.65-1,1.3,1.3,0,0,1,.23-.18l.16-.1.18-.11,1-.63.28-.16,1-.56.45-.23L39,13.7l.49-.21c.82-.32,1.67-.69,2.52-1l.77-.3c.26-.1.51-.19.77-.27l1.56-.55.93-.3c.77-.25,1.47-.48,2.19-.68l.53-.15c.38-.12.71-.22,1-.31l1.61-.47.92-.24L53,9.06h.36l1.22-.33,1.61-.36.69-.14H57l.81-.17.81-.19a3.45,3.45,0,0,1,.79-.15l1.52-.31C63.14,7.05,65.19,6.8,67.14,6.63Zm8,16.22a6.29,6.29,0,0,0-.23-1.13,3.69,3.69,0,0,0-.48-1l.09-.11a2.24,2.24,0,0,0,.35-.55,2.13,2.13,0,0,0,.23-.56V19a11.22,11.22,0,0,0,0-1.64,47.39,47.39,0,0,1,8.34,5.29,48,48,0,0,1,8,67.41l-4.82-13.7c-.1-1-.18-2.1-.26-3.24-.54-7.62-2.58-12.58-5.92-14.35-.22-3.52-1-14.93-1.82-19a32.56,32.56,0,0,0-4.2-10.93c.07-.18.17-.42.2-.52a1.09,1.09,0,0,0,.08-.28,2.76,2.76,0,0,0,.08-.27,4.54,4.54,0,0,0,.12-.53,20.33,20.33,0,0,0,.27-2.2A11.45,11.45,0,0,0,75.09,22.85Zm3.7,77.5a43.18,43.18,0,0,1-1.58-4.5c-.63-2.06-1.22-4.28-1.91-7.19a10,10,0,0,0,8.6-5.86l.86,1.53.57,1,1,1.79L87,88.41c.3.55.56,1,.82,1.55l.89,1.93c.13.25.25.5.37.75a49.57,49.57,0,0,1-10,8.38V101ZM32.14,26.47a13.67,13.67,0,0,0,.42,2,21.48,21.48,0,0,0-3.91,11.44c0,.49-.33,4.07-1.72,18.31l-.05.46c-4.53,2.12-5.56,8.83-5.95,14.45-.08,1.07-.16,2.19-.27,3.28L15.87,90A48,48,0,0,1,31.93,17.43v.22a.54.54,0,0,0,0,.18v.11l0,1.77v3.35A27.79,27.79,0,0,0,32.14,26.47ZM74.51,85.9a.48.48,0,0,1-.65.71,4.74,4.74,0,0,1-1-3.42.49.49,0,0,1,.46-.36h.17a.48.48,0,0,1,.32.6A4,4,0,0,0,74.51,85.9Zm0-4.82a1.86,1.86,0,0,1-1-.27c-.34-1.3-.65-2.49-1-3.75A46.09,46.09,0,0,0,69,67.83L68.62,67a.21.21,0,0,0-.18-.11h-.09l-.8.41a3.44,3.44,0,0,1-1.89.41,4.21,4.21,0,0,1-1-.12,3.26,3.26,0,0,1-.69-.22l-.33-.16-.18-.1-.16-.1a8.69,8.69,0,0,0-1.93-.9,10.57,10.57,0,0,0-2-.47h-.26a2.72,2.72,0,0,0,.69-1.55v-.55a.39.39,0,0,0-.06-.15.21.21,0,0,0-.15-.07l-9.78.06H48.64a2.85,2.85,0,0,1-1.18-.29.88.88,0,0,1-.36-.24H57.37a2.43,2.43,0,0,0,2.39-2,1.22,1.22,0,0,0,0-.27V59.25h7.77a8,8,0,0,1,1.38.23,2.47,2.47,0,0,1,1.12.64,6.66,6.66,0,0,0,.66.53,10.8,10.8,0,0,1,2.13,1.92A22.62,22.62,0,0,1,74.64,65l.06.06.12.11.12.15.89,1.33c.4.6.79,1.19,1.17,1.8l.06.1q1.14,1.74,2.25,3.51l.59,1A10.46,10.46,0,0,1,76,80.63,3,3,0,0,1,74.52,81.08Zm-3,.08-.08.15c-.2-.12-.39-.23-.59-.33a1.45,1.45,0,0,0-.26-.43,2.31,2.31,0,0,0-.39-.31,1.74,1.74,0,0,0,.81-1C71.15,79.88,71.32,80.5,71.49,81.16Zm-3.12-1a4.93,4.93,0,0,0-.86-.1h-.33c-.56,0-1,.07-1.56.07h-.13a7.75,7.75,0,0,0-3.18,1,17.39,17.39,0,0,1-9,2.67A15.28,15.28,0,0,1,45,81.31a7.54,7.54,0,0,0-3.43-1.19A12.47,12.47,0,0,0,40,80.05h-.32a6,6,0,0,0-.84.09,1.73,1.73,0,0,0,.69-1.41A1.68,1.68,0,0,0,39,77.48a1.48,1.48,0,0,0-.31-.25,1.73,1.73,0,0,0,.9-1.43,1.76,1.76,0,0,0-.77-1.54,1.7,1.7,0,0,0,1-1.39,1.73,1.73,0,0,0-.6-1.61,1.79,1.79,0,0,0,1-1.35,8.17,8.17,0,0,0,1.21.15,1.53,1.53,0,0,0-.14,1.2,1.56,1.56,0,0,0,1.22,1.14,1.54,1.54,0,0,0-.18,1.66,1.49,1.49,0,0,0,1.42.84,1.38,1.38,0,0,0-.17.52,1.55,1.55,0,0,0,.3,1.16,1.53,1.53,0,0,0,1.23.62.91.91,0,0,0,.33,0,1.6,1.6,0,0,0,.5,1.63,1.54,1.54,0,0,0,1,.38,1.67,1.67,0,0,0,.66-.15,1.61,1.61,0,0,0,1.59,1.57,1.59,1.59,0,0,0,1-.36,1.58,1.58,0,0,0,1.22,1.21h.32A1.57,1.57,0,0,0,53,80.82a1.58,1.58,0,0,0,1.38.85.33.33,0,0,0,.14,0,1.48,1.48,0,0,0,1-.52,1.44,1.44,0,0,0,.29-.51,1.57,1.57,0,0,0,1.15.5,1.48,1.48,0,0,0,.51-.09,1.54,1.54,0,0,0,1-1.35,1.63,1.63,0,0,0,.83.24,1.53,1.53,0,0,0,.86-.26,1.55,1.55,0,0,0,.67-1,1.82,1.82,0,0,0,0-.57,1.37,1.37,0,0,0,.49.09,1.62,1.62,0,0,0,.58-.11,1.57,1.57,0,0,0,.87-2h.25a1.56,1.56,0,0,0,1.34-.76,1.53,1.53,0,0,0,.18-1.18,1.46,1.46,0,0,0-.21-.48,1.59,1.59,0,0,0,1.31-1A1.56,1.56,0,0,0,65.34,71a1.58,1.58,0,0,0,1-1h.07c.2,0,.4-.06.6-.11a1.74,1.74,0,0,0,1,1.29,1.76,1.76,0,0,0,.3,3,1.38,1.38,0,0,0-.31.28,1.69,1.69,0,0,0-.45,1.23,1.75,1.75,0,0,0,.91,1.47,1.72,1.72,0,0,0-.85,1.53v.08A1.69,1.69,0,0,0,68.37,80.19ZM34.65,77.07c-.36,1.29-.69,2.6-1,3.82a2.09,2.09,0,0,1-.95.21,2.88,2.88,0,0,1-1.51-.46,10.19,10.19,0,0,1-3.88-8.14c.07-.09.15-.22.23-.35l.1-.16c.72-1.17,1.5-2.41,2.3-3.63.3-.42.62-1,.93-1.42l.25-.37,1.21-1.68a21.46,21.46,0,0,1,1.85-2.39,11.92,11.92,0,0,1,2.2-2A6.36,6.36,0,0,0,37,60a2.52,2.52,0,0,1,1.2-.65,7.19,7.19,0,0,1,1.3-.21h5.61v.47a1.62,1.62,0,0,0,.26.88v1.65a2.29,2.29,0,0,0,1.41,2.35,4.59,4.59,0,0,0,1.78.45h1.22l8,0a3.45,3.45,0,0,1-1.94.77h-7c-.34,0-.68.07-1,.07a11.08,11.08,0,0,0-2.05.47,9.53,9.53,0,0,0-1.91.9l-.29.17-.14.07-.24.12a3.55,3.55,0,0,1-.7.22,3.94,3.94,0,0,1-1.45.09,4.58,4.58,0,0,1-1.41-.41l-.8-.41H38.8a.21.21,0,0,0-.19.11l-.42.79A46.82,46.82,0,0,0,34.65,77.07ZM37,80.25a1.69,1.69,0,0,0-.72.86,3.1,3.1,0,0,0-.5.29l-.09-.23c.17-.63.34-1.24.51-1.84A1.72,1.72,0,0,0,37,80.25ZM33.48,83a.46.46,0,0,1,.29-.22h.13a.49.49,0,0,1,.46.36,4.72,4.72,0,0,1-1,3.43.5.5,0,0,1-.68,0,.47.47,0,0,1-.12-.34.46.46,0,0,1,.18-.4,4.05,4.05,0,0,0,.69-2.46A.48.48,0,0,1,33.48,83Zm-5.8,1.7a.52.52,0,0,1,.23-.71H28a3.75,3.75,0,0,0,.51-.38c.17-.14.33-.29.5-.46s.33-.34.49-.52.31-.36.44-.53a.44.44,0,0,1,.71.52c-.16.24-.32.45-.47.64s-.31.38-.48.57-.34.38-.53.56a5.56,5.56,0,0,1-.65.53.52.52,0,0,1-.29.09v0A.52.52,0,0,1,27.68,84.69Zm8.61-52a3,3,0,0,1,.05-.73c.13,1,.3,2,.49,3a.92.92,0,0,0-.11.33,3.84,3.84,0,0,0-.08.76v.33a2,2,0,0,1-.19.8,1.28,1.28,0,0,1-.5.48h-.17l-.24.11a2.65,2.65,0,0,0-.6.38,2.74,2.74,0,0,0-.66.82v-.18a5,5,0,0,1,1.11-2.57,4.26,4.26,0,0,0,.85-1.7,4.78,4.78,0,0,0,.1-1,4,4,0,0,0,0-.49A2,2,0,0,1,36.29,32.64Zm-1.7,12.29a2.39,2.39,0,0,0,.13-.21l.13-.19a4.44,4.44,0,0,0,.63-3.08v-.16a1.7,1.7,0,0,1-.06-.31,2.81,2.81,0,0,1,0-.41,2.33,2.33,0,0,1,.12-.79,1.46,1.46,0,0,1,.28-.52,2.72,2.72,0,0,0,.19.47,1.57,1.57,0,0,0-.06.53A3.94,3.94,0,0,0,36,41c0,.24.11.47.17.71l.06.24a2.16,2.16,0,0,1,.09.39,2.24,2.24,0,0,1-.1,1.06,2.71,2.71,0,0,1-.66,1,2.41,2.41,0,0,1-.41.37l-.14.1-.16.13c-.11.1-.22.2-.32.31l-.3.35C34.36,45.4,34.47,45.16,34.59,44.93ZM35,49.82a4.15,4.15,0,0,0,.14-1.68,2.59,2.59,0,0,1,.1-1,2.54,2.54,0,0,1,.5-.93l.19-.2.11-.1.12-.1a3.54,3.54,0,0,0,.57-.59,3.85,3.85,0,0,0,.74-1.47v-.07a1.48,1.48,0,0,0,2.05.23c.14.38.3.76.47,1.15a3.61,3.61,0,0,0-.59,1,3.82,3.82,0,0,0-.28,1.2v.58a2.67,2.67,0,0,1,0,.4,3.09,3.09,0,0,1-.64,1.47l-.15.17-.16.19-.33.44a10.71,10.71,0,0,0-.59.9c-.17.28-.33.59-.5.94a5.77,5.77,0,0,0-.41,1.07,3.44,3.44,0,0,0-.12.64v.31a1.61,1.61,0,0,0,0,.31,5,5,0,0,0,.19,1.15,6.85,6.85,0,0,0,1,2.05v.06l-.35.12H34.82a4.88,4.88,0,0,1-1-1.17,5.13,5.13,0,0,1-.45-1.08,5.75,5.75,0,0,1-.22-1.17,4.51,4.51,0,0,1,.41-2.26c.09-.17.19-.34.29-.5a1.88,1.88,0,0,1,.16-.23l.24-.35A5.19,5.19,0,0,0,35,49.82Zm2.13-8.68a2.07,2.07,0,0,0,.62.29l.24.06a1.43,1.43,0,0,0-.59.5,2.21,2.21,0,0,1-.16-.52C37.21,41.36,37.17,41.25,37.14,41.14ZM50.91,29.08l-.07-.24a1.06,1.06,0,0,0-.09-.25l-.11-.23-.09-.16,0-.07a3.67,3.67,0,0,0-.67-.75,3.1,3.1,0,0,0-.46-.35,33.09,33.09,0,0,1,4.1-.28c1.34,0,2.77.05,4.26.16a4.24,4.24,0,0,0-.65.46,3.58,3.58,0,0,0-.68.77v.07l-.09.15-.11.23a1.07,1.07,0,0,0-.07.19l-.09.3a.6.6,0,0,0,.32.72.58.58,0,0,0,.26.06.59.59,0,0,0,.55-.35,2.36,2.36,0,0,1,.85-1l.28-.18.11,0a1.24,1.24,0,0,1,.2-.1,4.08,4.08,0,0,1,.69-.26,9.25,9.25,0,0,1,1.47-.35,11.81,11.81,0,0,1,1.56-.17h.18c1,.13,2,.28,3,.46a5.86,5.86,0,0,1,1.11.58,8.51,8.51,0,0,1,1.45,2.06A12.62,12.62,0,0,0,69,32v.27a47.74,47.74,0,0,1-3.75,12.47A34.66,34.66,0,0,1,62,50.35a14.24,14.24,0,0,1-3.6,3.86,9.48,9.48,0,0,1-2.68,1.43,6.73,6.73,0,0,1-2.18.36h-.71a7.78,7.78,0,0,1-2.81-.94,11.86,11.86,0,0,1-2.49-1.91,15.19,15.19,0,0,1-3.06-3.93l-.19-.3c-.55-1-1.06-1.83-1.55-2.83s-.93-2-1.33-3a46.38,46.38,0,0,1-2-6.18l-.29-1.11a28.8,28.8,0,0,1-.84-4.11,4.2,4.2,0,0,1-.18-1h.1l.53-.36.24-.15.89-.56.31-.19.63-.37.27-.11,1.43-.45c.64-.19,2-.57,3.77-.93a11.52,11.52,0,0,1,1.52.35c.23.08.46.17.68.27a.66.66,0,0,1,.19.09l.14.07.27.14a2.23,2.23,0,0,1,.82,1,.62.62,0,0,0,.57.39.54.54,0,0,0,.18,0,.64.64,0,0,0,.25-.29A.61.61,0,0,0,50.91,29.08ZM67.33,50.51l.12.17.06.07.13.18c.09.12.18.25.26.38s.33.54.49.81a7.57,7.57,0,0,1,.72,1.65c0,.11,0,.23.07.35v.37a6.07,6.07,0,0,1-.12.84,5.46,5.46,0,0,1-.68,1.59l-.24.36-.45-.05h-1c.09-.18.17-.36.25-.56A5.52,5.52,0,0,0,67.27,55a6,6,0,0,0,0-.85,4.78,4.78,0,0,0-.2-.83,7.35,7.35,0,0,0-1.72-2.76l-.27-.28L64.84,50l-.15-.19a36.83,36.83,0,0,0,1.87-3.44v.09a2.82,2.82,0,0,1,.08.82v.21l-.08.19a3.11,3.11,0,0,0,0,.61A4.27,4.27,0,0,0,67.33,50.51Zm-4.28,4.16L63,54.4c0-.09-.12-.21-.12-.3a4,4,0,0,0-.23-.46c-.12-.21-.24-.4-.36-.58a17.14,17.14,0,0,0,1.54-2l.38-.5a2.33,2.33,0,0,0,.17.26l.21.3a8.25,8.25,0,0,1,.71,1.22,5.73,5.73,0,0,1,.42,1.29,1.19,1.19,0,0,1,.07.49v.18a3.68,3.68,0,0,1,.06.66,4.09,4.09,0,0,1-.16,1.25,3.32,3.32,0,0,1-.25.54,2.43,2.43,0,0,1-.33.46H62.74l.08-.15a4,4,0,0,0,.25-.56,5,5,0,0,0,.08-.66v-.6A3.78,3.78,0,0,0,63.05,54.67ZM62,55.77a2.87,2.87,0,0,1-.14.66V54.57l.14.19V55A2.82,2.82,0,0,1,62,55.77Zm-4.54,1.44a12.16,12.16,0,0,0,1.85-1.15c.31-.24.63-.49.95-.77v1.92Zm1.22,2.27v.61h-.32v-.61Zm-11.81.32a.18.18,0,0,1-.17-.17v-.46h.7c1.92.06,3.92.06,5.92.06H57.2v.57ZM46.88,61v.61h-.32V61Zm.1-3.71V55.38a13.63,13.63,0,0,0,2.38,1.68l.46.27Zm1,3.91H58a1,1,0,0,1-.65.22H48Zm-2.41-7.11v2.59a2.8,2.8,0,0,1-.26-.94,3.66,3.66,0,0,1,0-.81.74.74,0,0,1,0-.21,1.27,1.27,0,0,1,.13-.19A3.19,3.19,0,0,1,45.54,54.13Zm-1.47.62A3.9,3.9,0,0,0,44,55.93a3.84,3.84,0,0,0,.11.59,2.83,2.83,0,0,0,.23.57c0,.09.14.17.14.26H42.15l-.08-.08a3.68,3.68,0,0,1-.37-.51,2.61,2.61,0,0,1-.24-.54A3.59,3.59,0,0,1,41.29,55a5.29,5.29,0,0,1,.05-.56v-.32a1.14,1.14,0,0,0,.06-.44,5.9,5.9,0,0,1,.42-1.29,8.08,8.08,0,0,1,.68-1.22l.21-.3a2.23,2.23,0,0,0,.2-.3,29.53,29.53,0,0,0,1.88,2.56c-.13.19-.29.44-.37.59s-.16.3-.24.47a1.21,1.21,0,0,0-.11.3,2.68,2.68,0,0,0-.07.27Zm-4,2a4.63,4.63,0,0,0,.34.71h-.91l-.45.06a3.87,3.87,0,0,1-.37-.53A5.46,5.46,0,0,1,38,55.38a3.87,3.87,0,0,1-.12-.83v-.37a2.2,2.2,0,0,1,.07-.37,8.25,8.25,0,0,1,.72-1.64,8.15,8.15,0,0,1,.49-.8l.25-.39.14-.16a.66.66,0,0,1,.12-.17l.06-.08a4.41,4.41,0,0,0,.78-2.24,3.11,3.11,0,0,0,0-.61v-.46a3.17,3.17,0,0,1,.07-.81v-.17c.07.16.15.32.23.48a19,19,0,0,0,1.61,2.94v.06l-.18.23-.15.16-.36.37A7.43,7.43,0,0,0,40,53.28a4.63,4.63,0,0,0-.22.89,4.12,4.12,0,0,0,0,.86A5.18,5.18,0,0,0,40.08,56.73Zm-6,3a12.64,12.64,0,0,0-1.7,1.73A22.79,22.79,0,0,0,30.53,64l-.15.23-.43.68-.58.91-.34.54-.8,1.3c-.75,1.22-1.5,2.45-2.24,3.69l-.3.51a3.69,3.69,0,0,0-.47,0,4.54,4.54,0,0,0-2.49.82,29.06,29.06,0,0,1,1.69-8.65c1.23-2.91,3-4.29,5.62-4.35Zm-9,13.9a.44.44,0,0,1,.36.15.4.4,0,0,1,.11.31.45.45,0,0,1-.45.42,3.7,3.7,0,0,0-2.06,1.15.45.45,0,0,1-.38.21.43.43,0,0,1-.22-.06.44.44,0,0,1-.15-.6A4.33,4.33,0,0,1,25.1,73.61Zm-2,3.45a5.53,5.53,0,0,1,2.82-1.49h0a.44.44,0,0,1,.46.42v0a.42.42,0,0,1-.42.44,5,5,0,0,0-2.17,1.18.44.44,0,0,1-.35.17.46.46,0,0,1-.27-.13A.43.43,0,0,1,23.07,77.06Zm1,2a5.43,5.43,0,0,1,2.84-1.41h0a.43.43,0,0,1,.45.41h0a.43.43,0,0,1-.41.45,4.83,4.83,0,0,0-2.2,1.13.44.44,0,0,1-.34.16.49.49,0,0,1-.28-.13h0A.43.43,0,0,1,24,79.06Zm1,1.84a8.86,8.86,0,0,1,2.62-1.45h.11a.44.44,0,0,1,.42.34h0a.44.44,0,0,1-.33.53A8.4,8.4,0,0,0,25.6,81.6a.38.38,0,0,1-.27.1.48.48,0,0,1-.35-.19.46.46,0,0,1-.09-.32A.48.48,0,0,1,25.06,80.9Zm1.17,1.62c1.09-.78,1.92-1.32,2.47-1.63a.39.39,0,0,1,.21-.06.44.44,0,0,1,.21.83c-.49.27-1.31.81-2.38,1.57a.44.44,0,0,1-.25.08.45.45,0,0,1-.36-.18.42.42,0,0,1-.08-.33A.41.41,0,0,1,26.23,82.52Zm3.88,2.93.05,0a2.41,2.41,0,0,0,.42-.48,3.79,3.79,0,0,0,.38-.6,7.54,7.54,0,0,0,.57-1.3.43.43,0,0,1,.42-.34h.12a.45.45,0,0,1,.31.51,5.54,5.54,0,0,1-.21.8c-.09.26-.19.51-.3.76a5.22,5.22,0,0,1-.39.74,4.18,4.18,0,0,1-.53.72.57.57,0,0,1-.42.19.59.59,0,0,1-.4-.16.57.57,0,0,1-.18-.39A.59.59,0,0,1,30.11,85.45ZM62.7,72.76l.12.22a1.56,1.56,0,0,0-1.06.68,1.59,1.59,0,0,0-.11,1.41h-.17l-.27,0a1.56,1.56,0,0,0-1.27,1.81,1.69,1.69,0,0,0-.5-.08,1.54,1.54,0,0,0-1.55,1.44,1.54,1.54,0,0,0-.83-.24,1.48,1.48,0,0,0-.51.09,1.6,1.6,0,0,0-1,1,1.5,1.5,0,0,0-1.14-.51H54.3a1.62,1.62,0,0,0-1.07.51l-.11.15L53,79.12a1.55,1.55,0,0,0-1-.67,1.93,1.93,0,0,0-.34,0,1.57,1.57,0,0,0-1,.36,1.59,1.59,0,0,0-1.53-1.25,1.52,1.52,0,0,0-.66.15A1.58,1.58,0,0,0,47,76.06a.38.38,0,0,0-.15,0l-.25,0a1.59,1.59,0,0,0,.06-.43A1.56,1.56,0,0,0,45.08,74a1.6,1.6,0,0,0,.1-.23,1.47,1.47,0,0,0-.07-1.18,1.49,1.49,0,0,0-.88-.79L44,71.74a1.56,1.56,0,0,0,.29-1.38,1.51,1.51,0,0,0-.43-.73l.28-.11a4.9,4.9,0,0,0,.52-.24h.07l.18-.11.21-.11a7,7,0,0,1,1.45-.65A8.51,8.51,0,0,1,49,68h9.26c.27,0,.55,0,.82.06a8.37,8.37,0,0,1,1.58.33,6.37,6.37,0,0,1,1.45.67l.22.15.24.14a5.05,5.05,0,0,0,.53.24l.22.09a1.52,1.52,0,0,0,.45.94,1.56,1.56,0,0,0-1,1A1.51,1.51,0,0,0,62.7,72.76Zm12.43,9.88h.13a.47.47,0,0,1,.42.32,6.35,6.35,0,0,0,.55,1.32c.13.22.26.42.39.61a2.46,2.46,0,0,0,.43.48.59.59,0,0,1,.2.45.55.55,0,0,1-.18.4h0a.57.57,0,0,1-.81,0,3.83,3.83,0,0,1-.54-.73c-.14-.24-.27-.49-.39-.74s-.21-.5-.3-.76a6.21,6.21,0,0,1-.21-.85A.44.44,0,0,1,75.13,82.64Zm1.93.58c-.16-.2-.31-.4-.46-.61a.46.46,0,0,1,.07-.63.44.44,0,0,1,.27-.09.42.42,0,0,1,.34.17l.45.6.49.51c.16.16.33.33.5.47a3.75,3.75,0,0,0,.51.38h.07a.54.54,0,0,1,.15.74A.52.52,0,0,1,79,85a.5.5,0,0,1-.29-.09,6.66,6.66,0,0,1-.66-.53,5.78,5.78,0,0,1-.52-.59A6.57,6.57,0,0,1,77.06,83.22Zm1-1.56h0a.43.43,0,0,1-.16-.59.42.42,0,0,1,.39-.24.36.36,0,0,1,.2.06c.55.31,1.38.85,2.47,1.62a.45.45,0,0,1,.1.62.47.47,0,0,1-.36.18.5.5,0,0,1-.26-.08A25.07,25.07,0,0,0,78.07,81.66Zm1.25-1.32a.44.44,0,0,1-.32-.53.43.43,0,0,1,.42-.34h.1a9.06,9.06,0,0,1,2.62,1.44.4.4,0,0,1,.17.3.46.46,0,0,1-.09.32.43.43,0,0,1-.35.17.41.41,0,0,1-.26-.07A8.34,8.34,0,0,0,79.32,80.34Zm1-1.82a.44.44,0,0,1-.3-.15.4.4,0,0,1-.11-.31h0a.42.42,0,0,1,.44-.42,5.32,5.32,0,0,1,2.86,1.46.42.42,0,0,1,.1.31.43.43,0,0,1-.45.4.48.48,0,0,1-.35-.16A4.79,4.79,0,0,0,80.28,78.52Zm1-2.07a.41.41,0,0,1-.31-.14.42.42,0,0,1-.11-.32.45.45,0,0,1,.45-.42,5.45,5.45,0,0,1,2.84,1.52h0a.44.44,0,0,1-.09.62.43.43,0,0,1-.26.09.43.43,0,0,1-.35-.17A5.18,5.18,0,0,0,81.27,76.45Zm2.89-.82a3.92,3.92,0,0,0-2-1.14.46.46,0,0,1-.49-.42.52.52,0,0,1,.11-.32.41.41,0,0,1,.31-.14,4.38,4.38,0,0,1,2.85,1.58.47.47,0,0,1,0,.33.45.45,0,0,1-.2.28.46.46,0,0,1-.2,0A.43.43,0,0,1,84.16,75.63ZM82,71.94h-.15l-.36-.64c-.87-1.48-1.56-2.62-2.24-3.7l-1.15-1.83-.58-.91-.45-.68a.52.52,0,0,0-.1-.11h0l-.1-.13A25.66,25.66,0,0,0,75,61.33a18.77,18.77,0,0,0-1.53-1.56h3.7c2.39,0,4.17,1.42,5.45,4.36a27.78,27.78,0,0,1,1.87,8.63A4.68,4.68,0,0,0,82,71.94Zm-8-17.3a4.64,4.64,0,0,1-.21,1.17,5.26,5.26,0,0,1-.49,1.08,4.47,4.47,0,0,1-1,1.12H70.65a6.39,6.39,0,0,0-.83-.31,6.41,6.41,0,0,0,.81-1.88,5.11,5.11,0,0,0,.19-1.16v-.6c0-.18,0-.35-.08-.53a8.14,8.14,0,0,0-.41-1.07,8.38,8.38,0,0,0-.51-1c-.16-.27-.35-.55-.59-.89l-.07-.09c-.09-.12-.17-.24-.26-.35l-.17-.2-.13-.16A3.06,3.06,0,0,1,68,48.3a2.54,2.54,0,0,1,0-.39v-.25a1.5,1.5,0,0,0,0-.3,3.82,3.82,0,0,0-.25-1.16,4.08,4.08,0,0,0-.56-1c.18-.41.34-.78.48-1.16a1.5,1.5,0,0,0,.87.28,1.46,1.46,0,0,0,1.14-.55v.08a3.72,3.72,0,0,0,.74,1.47,3.24,3.24,0,0,0,.58.59L71,46h.06l.09.09.15.22a2.61,2.61,0,0,1,.51.94,2.79,2.79,0,0,1,.09,1,4.14,4.14,0,0,0,.16,1.68,4.6,4.6,0,0,0,.75,1.48l.26.27.16.23a3.27,3.27,0,0,1,.32.5A4.38,4.38,0,0,1,74,54.64Zm-4.87-13.2h.24a2.46,2.46,0,0,0,.63-.31l-.15.45a1.51,1.51,0,0,0-.13.41A1.42,1.42,0,0,0,69.09,41.44ZM71,39.68a2.23,2.23,0,0,0,.16-.43,2.07,2.07,0,0,1,.28.53,2.94,2.94,0,0,1,.11.78,2.67,2.67,0,0,1,0,.4,1.55,1.55,0,0,0-.07.31v.16A4.16,4.16,0,0,0,71.82,44c.08.16.16.31.25.46l.2.3.07.12a4.17,4.17,0,0,1,.31.68c-.09-.12-.19-.23-.29-.34a2.5,2.5,0,0,0-.23-.23l-.06-.06-.19-.15h-.09a3.51,3.51,0,0,1-.4-.37,2.67,2.67,0,0,1-.57-.94,2,2,0,0,1,0-1.07,4.9,4.9,0,0,1,.13-.55v-.07A2,2,0,0,0,71,41a4.79,4.79,0,0,0,.1-.76A2.86,2.86,0,0,0,71,39.68Zm1.76-.83a2.87,2.87,0,0,0-.66-.81,2.9,2.9,0,0,0-.6-.38h-.07l-.12,0-.17-.08a1.35,1.35,0,0,1-.55-.51,2.18,2.18,0,0,1-.19-.79V35.9a6.48,6.48,0,0,0-.07-.77,1.47,1.47,0,0,1-.11-.34c.13-.62.27-1.36.41-2.36h.12v.45a2.94,2.94,0,0,0,0,.51,4.19,4.19,0,0,0,.1,1,4.56,4.56,0,0,0,.87,1.78,4.78,4.78,0,0,1,1.09,2.51Zm-1.5-9.18a2.88,2.88,0,0,1-.34.27A28.15,28.15,0,0,0,68,26.89a22.9,22.9,0,0,0-2.09-1.7c-.73-.52-1.49-1-2.26-1.46A23.66,23.66,0,0,0,59.84,22l.69-.12h.21l1-.16L63,21.5a20.91,20.91,0,0,1,9,7.17A4.09,4.09,0,0,1,71.28,29.67Zm-8.59-4.29c.34.21.68.43,1.05.68a69.3,69.3,0,0,0-10.07-.82,37.25,37.25,0,0,0-6.32.59,60.32,60.32,0,0,1,7.26-2.6c.63-.2,1.31-.37,2-.54.57.18,1.11.37,1.6.55A23,23,0,0,1,62.69,25.38Zm-8.55-3.63a61.7,61.7,0,0,0-9.41,3.56c-1.55.73-3,1.52-4.46,2.34-.7.4-1.4.83-2.16,1.31l-.31.21-.75.5c-.28.19-.54.38-.82.59a1,1,0,0,1-.34-.09,1,1,0,0,1-.34-.26,2.51,2.51,0,0,1-.45-1,3.71,3.71,0,0,1-.11-.58,24.37,24.37,0,0,1,2.59-2.69,24,24,0,0,1,16-5.95,25.53,25.53,0,0,1,6.22.77A54.91,54.91,0,0,0,54.14,21.75Zm-17.72.73c-.75.56-1.47,1.14-2.14,1.73V23a54.07,54.07,0,0,1,6.49-4.2c2.31-1.29,4.79-2.51,7.57-3.74,2.6-1.12,5.26-2.15,7.9-3.05,1.38-.46,2.71-.87,4-1.24l1-.29,1-.26,1-.25.83-.2.19.09.27.11-.76.18-1.11.3-1.12.3c-1.45.39-2.89.86-4.45,1.39a87.54,87.54,0,0,0-8.57,3.44,77.87,77.87,0,0,0-8.25,4.31C38.9,20.74,37.63,21.59,36.42,22.48Zm-1.91,9,.24.13.25.1.15.06a3.44,3.44,0,0,0-.19.83,4.17,4.17,0,0,0,0,.5v.31a5.13,5.13,0,0,1-.13.66,2.66,2.66,0,0,1-.26.6,4.24,4.24,0,0,1-.38.56A5.28,5.28,0,0,0,33,38.74a4.79,4.79,0,0,0,.46,1.82,5.62,5.62,0,0,0,.48.78,3.29,3.29,0,0,1,.09.43,3.28,3.28,0,0,1-.35,2l-.13.22-.13.28A5.17,5.17,0,0,0,33,45.44a5.23,5.23,0,0,0,.07,2.36A4.26,4.26,0,0,0,33.61,49c0,.13-.07.29-.12.45a3.16,3.16,0,0,1-.51,1l-.21.26c-.09.11-.16.22-.24.33a6,6,0,0,0-.4.7,5.92,5.92,0,0,0-.48,1.53,7,7,0,0,0,0,1.58,6.3,6.3,0,0,0,1,2.94l.22.29H30a7.75,7.75,0,0,0-1.18,0C29,56.35,30.56,41.2,30.56,40a19.91,19.91,0,0,1,2.94-9.51l.17.21.19.2a1.7,1.7,0,0,0,.19.19l.12.14A2.62,2.62,0,0,0,34.51,31.44ZM22,78.45a3.28,3.28,0,0,0-.2.31l-.11.17c-.18.34-.55.95-1,1.64l1.15-2.51ZM19.4,89.21c.2-.42.41-.85.62-1.27l.8-1.61.68-1.42c.25-.43.5-1,.76-1.43l.92-1.69a11.37,11.37,0,0,0,8.63,6.83c-.7,2.91-1.33,5.27-1.93,7.18s-1.21,3.59-1.86,5.12a48,48,0,0,1-10-8.53C18.46,91.21,19,90.15,19.4,89.21Zm12.23,7.21c.89-2.61,1.6-5.24,2.39-8.38a5.1,5.1,0,0,0,2.2-4.68l.47-.35a1.72,1.72,0,0,0,.49.36,1.75,1.75,0,0,0,.31,3,1.73,1.73,0,0,0,.48,3,1.68,1.68,0,0,0,.72,2.94,1.73,1.73,0,0,0,.88,3,1.7,1.7,0,0,0-.41,1,1.75,1.75,0,0,0,1.55,1.93,1.74,1.74,0,0,0,1.4,2.76,1.71,1.71,0,0,0,.1,1.83,1.73,1.73,0,0,0,1.43.75h.29a1.76,1.76,0,0,0,1.64,2.34,1.88,1.88,0,0,0,.62-.11,1.67,1.67,0,0,0,0,.63,1.71,1.71,0,0,0,.77,1.08,1.83,1.83,0,0,0,.94.27,1.7,1.7,0,0,0,1-.32,1.75,1.75,0,0,0,.25.77,47.44,47.44,0,0,1-19.67-6.32A50.14,50.14,0,0,0,31.63,96.42Zm17.1,8.2a1.69,1.69,0,0,0-1.54-.15,1.48,1.48,0,0,0,0-.21,1.76,1.76,0,0,0-1.74-1.79,1.5,1.5,0,0,0-.3,0,1.73,1.73,0,0,0-.21-1.59,1.81,1.81,0,0,0-1.13-.73h-.29a1.69,1.69,0,0,0,0-1.63,1.73,1.73,0,0,0-1.37-1,3.37,3.37,0,0,0,.19-.32,1.84,1.84,0,0,0-.92-2.32,2.29,2.29,0,0,0-.37-.12,1.67,1.67,0,0,0,.36-1.63,1.71,1.71,0,0,0-1.2-1.19,1.67,1.67,0,0,0,.41-.66,1.74,1.74,0,0,0-1.06-2.23,1.73,1.73,0,0,0,.6-1.58,1.75,1.75,0,0,0-1-1.35,1.73,1.73,0,0,0,.68-1.55,1.75,1.75,0,0,0-1-1.41,1.94,1.94,0,0,0,.31-.26,1.67,1.67,0,0,0,.45-1.1H40q.66,0,1.41.06a5.9,5.9,0,0,1,2.66.93,16.94,16.94,0,0,0,9.26,2.79,19.23,19.23,0,0,0,9.89-2.91,5.76,5.76,0,0,1,2.42-.79h.14a11.41,11.41,0,0,1,1.4-.06h.37A1.68,1.68,0,0,0,68,82.9a1.14,1.14,0,0,0,.31.27,1.52,1.52,0,0,0-.34.22,1.73,1.73,0,0,0-.63,1.17A1.77,1.77,0,0,0,68,86.13a1.71,1.71,0,0,0-1,1.33,1.74,1.74,0,0,0,.58,1.6,1.71,1.71,0,0,0-.69.43,1.74,1.74,0,0,0,0,2.46,1.66,1.66,0,0,0-.31.12,1.77,1.77,0,0,0-.76,2.39,1.24,1.24,0,0,0,.17.27,1.73,1.73,0,0,0-1.27,1.07,1.75,1.75,0,0,0,0,1.35,2.07,2.07,0,0,0,.19.32,1.66,1.66,0,0,0-1.36.91,1.75,1.75,0,0,0,0,1.66,1.41,1.41,0,0,0-.29,0,1.67,1.67,0,0,0-1.13.7,1.76,1.76,0,0,0-.29,1.32,1.37,1.37,0,0,0,.07.29h-.29a1.78,1.78,0,0,0-1.75,1.75,1,1,0,0,0,0,.25l-.23-.08h-.39a1.64,1.64,0,0,0-.91.27,1.71,1.71,0,0,0-.79,1.07.81.81,0,0,0,0,.22,1.61,1.61,0,0,0-1.48-.25,1.75,1.75,0,0,0-1.14,1,1.73,1.73,0,0,0-1.35-.65,1.75,1.75,0,0,0-1.38.65.89.89,0,0,0-.08-.17,1.79,1.79,0,0,0-1-.83,1.71,1.71,0,0,0-1.57.32A1.75,1.75,0,0,0,48.73,104.62Zm9.63,2.84a1.72,1.72,0,0,0,1.91.06,1.84,1.84,0,0,0,.8-1.09,2.29,2.29,0,0,0,0-.64,1.88,1.88,0,0,0,.62.11,1.74,1.74,0,0,0,1.22-.5,1.8,1.8,0,0,0,.53-1.24,1.71,1.71,0,0,0-.11-.59h.29a1.67,1.67,0,0,0,.82-.21,1.75,1.75,0,0,0,.71-2.37,1.73,1.73,0,0,0,1.53-.93,1.77,1.77,0,0,0-.1-1.88,1.63,1.63,0,0,0,.48-.13,1.75,1.75,0,0,0,.94-2.3,1.83,1.83,0,0,0-.28-.44A1.78,1.78,0,0,0,69,94.1a1.74,1.74,0,0,0-.12-1.34,1.81,1.81,0,0,0-.32-.41,1.73,1.73,0,0,0,1.23-1.29,1.8,1.8,0,0,0-.57-1.65,1.83,1.83,0,0,0,.86-2.71,1.33,1.33,0,0,0-.35-.36,1.68,1.68,0,0,0,1.06-1.43,1.77,1.77,0,0,0-.42-1.31,1.65,1.65,0,0,0-.37-.33,1.62,1.62,0,0,0,.55-.42l.41.29a5.28,5.28,0,0,0,2.31,4.92c.78,3.2,1.52,5.9,2.36,8.27.57,1.67,1.14,3.16,1.77,4.58.13.29.27.58.39.88a47.5,47.5,0,0,1-19.71,6.38A1.64,1.64,0,0,0,58.36,107.46ZM76.69,40.15c.73,3.61,1.44,13.67,1.73,18a8.5,8.5,0,0,0-1.23-.1H74.32l.22-.3a6.3,6.3,0,0,0,1-2.93A5.84,5.84,0,0,0,75,51.71c-.15-.28-.27-.5-.4-.7l-.22-.3-.23-.29a3,3,0,0,1-.51-1,4.37,4.37,0,0,1-.12-.52,4,4,0,0,0,.5-1.14,5.09,5.09,0,0,0,.07-2.36,5.17,5.17,0,0,0-.38-1.15,2.56,2.56,0,0,0-.11-.24l-.15-.27a2.64,2.64,0,0,1-.18-.38,3.13,3.13,0,0,1-.18-1.63,2.14,2.14,0,0,0,.1-.48,2.77,2.77,0,0,0,.48-.74,4.53,4.53,0,0,0,.46-1.81,5,5,0,0,0-.27-1.88,5.46,5.46,0,0,0-.94-1.68,4.07,4.07,0,0,1-.37-.55,3.2,3.2,0,0,1-.38-1.24,1.82,1.82,0,0,1,0-.33,4.17,4.17,0,0,0,0-.5,3.56,3.56,0,0,0-.13-.65,4.61,4.61,0,0,0,.77-.63,4.88,4.88,0,0,0,.48-.53A31.11,31.11,0,0,1,76.69,40.15ZM73.07,24.94a17.14,17.14,0,0,1-.25,1.75,24.86,24.86,0,0,0-2-2.23,23.32,23.32,0,0,0-4.2-3.35l1-.05h1.2l.17.06.58.08c.81.09,1.43.18,2,.29l.91.2.28.1c0,.09.12.3.19.54a5.19,5.19,0,0,1,.12.79A11.06,11.06,0,0,1,73.07,24.94Zm-.21-5.28-1.26-.07H69.08c-1.76,0-3.38.1-4.94.27A26,26,0,0,0,53.6,17.78a26.58,26.58,0,0,0-7.1.94c.92-.48,1.86-.95,2.8-1.41,2.7-1.3,5.53-2.49,8.4-3.55,1.49-.55,2.94-1,4.32-1.46l1.1-.33,1.1-.3,1.1-.29c.3-.07.59-.15.89-.24a.61.61,0,0,0,.22.13h.08l.25.1.67.33a10.39,10.39,0,0,1,1.26.81,11.25,11.25,0,0,1,2.13,2.12,13.52,13.52,0,0,1,2.25,5ZM51.38,2.53l1.08-.18a8.47,8.47,0,0,1,1.21-.14c1.15-.1,2.15-.15,3.15-.15a15.91,15.91,0,0,1,1.72.06,18.8,18.8,0,0,1,2.36.3,12.25,12.25,0,0,1,2.22.64A6.88,6.88,0,0,1,65,4.25l.27.27.12.11.14.19c-1.47.17-3.05.39-4.82.68l-1.94.37-.53.1L57,6.25c-.39.08-.78.16-1.18.26l-1.54.36a4.5,4.5,0,0,0-.46-1.47,6.24,6.24,0,0,0-1-1.34,8.63,8.63,0,0,0-1.53-1.3A.92.92,0,0,1,51.38,2.53ZM46.49,3h.18A1.06,1.06,0,0,1,47,3h.17l.23.11a4.75,4.75,0,0,1,.64.2,9.89,9.89,0,0,1,1.26.53,10.35,10.35,0,0,1,1.16.68h.05l.17.15c.13.1.23.2.35.31l.13.13-1.24-.62A25.55,25.55,0,0,0,47,3.27L46.4,3.1ZM41.08,5.76a.66.66,0,0,1,.17-.12l.11-.07c.09-.08.18-.13.26-.19a4.26,4.26,0,0,1,2.2-.77,7.2,7.2,0,0,1,1.31.15c.46.1.92.21,1.38.35a23.94,23.94,0,0,1,2.72,1c.46.2.89.42,1.29.63a11.26,11.26,0,0,1,1.21.71l.09.06-1.41.38c-.52-.22-1-.42-1.59-.59a31,31,0,0,0-5.2-1.17c-1-.13-1.8-.21-2.64-.24h-.07ZM37,8.69l.2-.17.57-.45A1.39,1.39,0,0,1,38,8l.5-.11a12.76,12.76,0,0,1,1.75-.12h.63c.85,0,1.72.11,2.49.18a29.47,29.47,0,0,1,4.27.8c-.65.19-1.29.41-1.93.63l-.17.06-.1-.05-.39-.06a24.59,24.59,0,0,0-3.43-.22h-.89c-1.38.08-2.78.2-4.28.36h-.1A3,3,0,0,1,37,8.69ZM72.79,108.75a51.88,51.88,0,1,1-38-96.56c.06-.11.11-.22.17-.32v-.08l1.77-.26a39.47,39.47,0,0,1,4.06-.35h.09c-.68.28-1.35.58-2,.87l-.54.24L36.86,13c-.16.07-.32.16-.48.25l-1,.55-.37.21-.36.22-.72.46-.14.08V14.4l.06-.17.08-.22.18-.46.17-.41a51.15,51.15,0,1,0,37.94-.33,21.94,21.94,0,0,1,.6,2.25,13.1,13.1,0,0,0-3.22-3.77,10,10,0,0,0-1.1-.73c-.25-.21-.55-.44-.85-.65a14.87,14.87,0,0,0-1.37-.85h.54a10.51,10.51,0,0,1,4.24,1.21l.11.19.23.42c.18.32.35.66.5,1H72a51.88,51.88,0,0,1,.81,96.87Z"/><path class="cls-1" d="M154.09,60h7.39c.3,0,.41.15.41.44v3.15c0,.23-.11.37-.41.37h-7.39v24L165,87.78a.48.48,0,0,1,.5.46h0V90.9a.7.7,0,0,1-.73.67H147.05c-.41,0-.6-.22-.6-.45s-.06-54.68-.06-54.91.19-.44.6-.44h17.73a.77.77,0,0,1,.8.67v3.07H154.13Z"/><path class="cls-1" d="M171.33,36.27c0-.21.2-.44.6-.44H177c.39,0,.6.23.6.44s.13,54.69.13,54.91-.21.45-.6.45H172c-.41,0-.6-.22-.6-.45S171.33,36.45,171.33,36.27Z"/><path class="cls-1" d="M183.68,36.15c0-.14.2-.37.6-.37h7.94c.7,0,1,.53,1.2,1.27l9.18,32h.2V36.15c0-.3.2-.37.6-.37h4.74c.41,0,.6.23.6.37V90.76c0,.52-.3.82-1,.82h-4.19a2.24,2.24,0,0,1-2-1.86L189.87,49.17h-.2v42c0,.3-.19.37-.6.37h-4.79c-.4,0-.6-.22-.6-.37Z"/><path class="cls-1" d="M228.6,79.16a.87.87,0,0,0-.9-.67h-7.39a.64.64,0,0,0-.58.52s-2.21,11.9-2.21,12.13-.2.44-.69.44h-3.9c-.4,0-.6-.22-.6-.44s10.19-54.69,10.19-54.69a.77.77,0,0,1,.79-.67H227a.93.93,0,0,1,.9.82s10.51,54.31,10.51,54.54-.2.44-.7.44h-6.18c-.49,0-.7-.22-.7-.44S228.6,79.16,228.6,79.16Zm-1.39-4.55a.38.38,0,0,0,.42-.34.4.4,0,0,0,0-.19l-3.5-18.28h-.19l-3.3,18.3a.3.3,0,0,0,.12.41.37.37,0,0,0,.18,0Z"/><path class="cls-1" d="M141.06,91.58a3,3,0,0,0-.73,0h-.47c-6.17,0-6.83-3.59-6.83-5.09V68.33c0-3.88-3.18-6.79-7.41-6.79h-2.4V91.33c0,.06,0,.2-.26.2h-7.31c-.24,0-.26-.14-.26-.2V29.13c0-.06,0-.2.26-.2h8.95c11.91,0,17.45,4.86,17.45,15.3,0,7.34-2.67,12.16-8.17,14.73l-.59.29.62.24c3.39,1.34,7,4.45,7,9.17V86.27c0,.36,0,2.14.07,3.6C141.06,90.73,141.06,91.48,141.06,91.58ZM123.32,57.93h2.17c6,0,8.2-3.71,8.2-13.7,0-8.52-2.23-11.68-8.2-11.68h-2.11Z"/><path class="cls-1" d="M267,35.78A1.29,1.29,0,0,1,268.4,37a.17.17,0,0,1,0,.07L275,69.26h.22l6.09-32.21c.11-.74.41-1.27,1.1-1.27h8.51c.39,0,.59.23.59.37s.09,54.76.09,55.11-.21.37-.6.37h-6.64c-.49,0-.6-.22-.6-.37v-41h-.15L276,90.94a.73.73,0,0,1-.81.59H273c-.3,0-.41-.3-.5-.67l-8.09-40.73h-.2s.11,40.73.11,41-.2.38-.6.38h-4.88c-.39,0-.59-.22-.59-.38s.09-54.75.09-55.1.2-.37.6-.37Z"/><path class="cls-1" d="M323.62,62.2c0,14.06-1.3,29.38-13.38,29.38S297,76.26,297,62.2c0-10.71,1.3-26.36,13.28-26.36S323.62,51.49,323.62,62.2Zm-18.45.07c0,19.34,2.2,25.6,5.09,25.6s5.2-6.26,5.2-25.6c0-16.52-2.2-22.76-5.2-22.76S305.17,45.75,305.17,62.27Z"/><path class="cls-1" d="M336.67,91.14c0,.22-.2.44-.59.44h-6.46c-.4,0-.59-.22-.59-.44V36.23c0-.23.21-.45.6-.45h7.88c10.39,0,15.78,4.1,15.78,13.77,0,8.26-3.89,11.6-7.39,13.24,3.39,1.35,6.38,4.24,6.38,8.39V86.75c0,.53.1,4.47.1,4.7s-.49.21-1,.21H351c-4.59,0-6.39-2.22-6.39-4.79V70.82a5.85,5.85,0,0,0-6-5.73h-1.92S336.67,90.91,336.67,91.14Zm0-29.76h1.5c4.9,0,6.89-2.91,6.89-11.83,0-7.59-2-10-6.89-10h-1.5Z"/><path class="cls-1" d="M377.37,91.58c-.4,0-.4-.14-.4-.2,0-.26-2.07-10.49-2.72-13.61a1.38,1.38,0,0,0-1.41-1h-8.39a1.07,1.07,0,0,0-1.06.81c-.59,3.21-2.47,13.56-2.47,13.82,0,0,0,.2-.38.2h-4.32c-.24,0-.27-.14-.27-.2.09-.71,11.28-61.29,11.4-61.9s.36-.49.49-.49H372c.33,0,.54.35.61.67.12.6,11.84,61,12,61.74,0,0,0,.18-.39.18ZM364.41,72a.57.57,0,0,0,.14.64.88.88,0,0,0,.6.21h7.1a.92.92,0,0,0,.67-.25.63.63,0,0,0,.17-.72l-4-20.86h-.94Z"/></g></g></g></svg>